<svg width="347" height="536" viewBox="0 0 347 536" fill="none" xmlns="http://www.w3.org/2000/svg">
<path fill-rule="evenodd" clip-rule="evenodd" d="M121.223 0.24587C154.701 -1.95718 187.543 10.7631 212.127 33.6393C237.646 57.3857 252.101 89.9477 254.992 124.722C258.175 162.995 254.95 204.423 228.652 232.363C201.833 260.858 159.999 271.803 121.223 266.848C86.2384 262.378 61.0043 234.879 38.0938 208.014C17.5113 183.879 -0.649198 156.462 0.0178153 124.722C0.673343 93.5299 19.7776 67.1977 41.5225 44.8659C63.6153 22.1767 89.6539 2.32323 121.223 0.24587Z" fill="#D66E48" fill-opacity="0.8"/>
<path fill-rule="evenodd" clip-rule="evenodd" d="M144.223 4.24587C177.701 2.04282 210.543 14.7631 235.127 37.6393C260.646 61.3857 275.101 93.9477 277.992 128.722C281.175 166.995 277.95 208.423 251.652 236.363C224.833 264.858 182.999 275.803 144.223 270.848C109.238 266.378 84.0043 238.879 61.0938 212.014C40.5113 187.879 22.3508 160.462 23.0178 128.722C23.6733 97.5299 42.7776 71.1977 64.5225 48.8659C86.6153 26.1767 112.654 6.32323 144.223 4.24587Z" stroke="#3F493A" stroke-width="1.5"/>
<path fill-rule="evenodd" clip-rule="evenodd" d="M224.576 204.001C244.981 203.908 263.602 213.324 277.455 228.361C292.916 245.144 305.892 265.928 302.438 288.521C298.723 312.825 281.658 332.988 259.772 344.036C237.4 355.329 210.252 358.357 188.395 346.09C167.727 334.491 159.99 309.765 156.757 286.221C153.92 265.562 159.045 244.902 172.294 228.839C185.23 213.156 204.291 204.093 224.576 204.001Z" fill="#D18906" fill-opacity="0.8"/>
<path fill-rule="evenodd" clip-rule="evenodd" d="M224.576 189.001C244.981 188.908 263.602 198.324 277.455 213.361C292.916 230.144 305.892 250.928 302.438 273.521C298.723 297.825 281.658 317.988 259.772 329.036C237.4 340.329 210.252 343.357 188.395 331.09C167.727 319.491 159.99 294.765 156.757 271.221C153.92 250.562 159.045 229.902 172.294 213.839C185.23 198.156 204.291 189.093 224.576 189.001Z" stroke="#3F493A" stroke-width="1.5"/>
<path fill-rule="evenodd" clip-rule="evenodd" d="M219.576 195.001C239.981 194.908 258.602 204.324 272.455 219.361C287.916 236.144 300.892 256.928 297.438 279.521C293.723 303.825 276.658 323.988 254.772 335.036C232.4 346.329 205.252 349.357 183.395 337.09C162.727 325.491 154.99 300.765 151.757 277.221C148.92 256.562 154.045 235.902 167.294 219.839C180.23 204.156 199.291 195.093 219.576 195.001Z" stroke="#3F493A" stroke-width="1.5"/>
<circle cx="147.28" cy="386.059" r="6.5" transform="rotate(-161.848 147.28 386.059)" fill="#B7B680" fill-opacity="0.8"/>
<circle cx="182.189" cy="346.99" r="6.5" transform="rotate(-161.848 182.189 346.99)" fill="#B7B680" fill-opacity="0.8"/>
<circle cx="270.358" cy="399.049" r="6.5" transform="rotate(-161.848 270.358 399.049)" fill="#B7B680" fill-opacity="0.8"/>
<circle cx="272.647" cy="350.338" r="6.5" transform="rotate(-161.848 272.647 350.338)" fill="#B7B680" fill-opacity="0.8"/>
<circle cx="272.647" cy="350.338" r="6.5" transform="rotate(-161.848 272.647 350.338)" fill="#B7B680" fill-opacity="0.8"/>
<circle cx="279.783" cy="450.548" r="6.5" transform="rotate(-161.848 279.783 450.548)" fill="#B7B680" fill-opacity="0.8"/>
<circle cx="231.275" cy="489.368" r="6.5" transform="rotate(-161.848 231.275 489.368)" fill="#B7B680" fill-opacity="0.8"/>
<circle cx="175.96" cy="494.385" r="6.5" transform="rotate(-161.848 175.96 494.385)" fill="#B7B680" fill-opacity="0.8"/>
<circle cx="165.756" cy="477.359" r="6.5" transform="rotate(-161.848 165.756 477.359)" fill="#B7B680" fill-opacity="0.8"/>
<circle cx="143.652" cy="483.793" r="6.5" transform="rotate(-161.848 143.652 483.793)" fill="#B7B680" fill-opacity="0.8"/>
<circle cx="223.968" cy="418.568" r="6.5" transform="rotate(-161.848 223.968 418.568)" fill="#B7B680" fill-opacity="0.8"/>
<circle cx="243.549" cy="413.412" r="9.5" transform="rotate(-161.848 243.549 413.412)" fill="#B7B680" fill-opacity="0.8"/>
<circle cx="217.549" cy="335.431" r="9.5" transform="rotate(-161.848 217.549 335.431)" fill="#B7B680" fill-opacity="0.8"/>
<circle cx="206.373" cy="377.545" r="5" transform="rotate(-161.848 206.373 377.545)" fill="#B7B680" fill-opacity="0.8"/>
<circle cx="203.795" cy="367.755" r="3.5" transform="rotate(-161.848 203.795 367.755)" fill="#B7B680" fill-opacity="0.8"/>
<circle cx="175.849" cy="408.054" r="3.5" transform="rotate(-161.848 175.849 408.054)" fill="#B7B680" fill-opacity="0.8"/>
<circle cx="143.339" cy="420.548" r="3.5" transform="rotate(-161.848 143.339 420.548)" fill="#B7B680" fill-opacity="0.8"/>
<circle cx="99.7846" cy="437.84" r="3.5" transform="rotate(-161.848 99.7846 437.84)" fill="#B7B680" fill-opacity="0.8"/>
<circle cx="126.516" cy="471.861" r="3.5" transform="rotate(-161.848 126.516 471.861)" fill="#B7B680" fill-opacity="0.8"/>
<circle cx="214.217" cy="429.052" r="3.5" transform="rotate(-161.848 214.217 429.052)" fill="#B7B680" fill-opacity="0.8"/>
<circle cx="218.408" cy="445.159" r="3.5" transform="rotate(-161.848 218.408 445.159)" fill="#B7B680" fill-opacity="0.8"/>
<circle cx="302.589" cy="458.025" r="3.5" transform="rotate(-161.848 302.589 458.025)" fill="#B7B680" fill-opacity="0.8"/>
<circle cx="265.289" cy="461.056" r="2" transform="rotate(-161.848 265.289 461.056)" fill="#B7B680" fill-opacity="0.8"/>
<circle cx="259.525" cy="446.537" r="2" transform="rotate(-161.848 259.525 446.537)" fill="#B7B680" fill-opacity="0.8"/>
<circle cx="206.109" cy="452.177" r="2" transform="rotate(-161.848 206.109 452.177)" fill="#B7B680" fill-opacity="0.8"/>
<circle cx="143.581" cy="469.563" r="2" transform="rotate(-161.848 143.581 469.563)" fill="#B7B680" fill-opacity="0.8"/>
<circle cx="154.142" cy="430.93" r="2" transform="rotate(-161.848 154.142 430.93)" fill="#B7B680" fill-opacity="0.8"/>
<circle cx="112.753" cy="438.408" r="2" transform="rotate(-161.848 112.753 438.408)" fill="#B7B680" fill-opacity="0.8"/>
<circle cx="168.286" cy="349.273" r="2" transform="rotate(-161.848 168.286 349.273)" fill="#B7B680" fill-opacity="0.8"/>
<circle cx="171.837" cy="364.118" r="2" transform="rotate(-161.848 171.837 364.118)" fill="#B7B680" fill-opacity="0.8"/>
<circle cx="255.442" cy="388.371" r="2" transform="rotate(-161.848 255.442 388.371)" fill="#B7B680" fill-opacity="0.8"/>
<circle cx="222.793" cy="436.599" r="2" transform="rotate(-161.848 222.793 436.599)" fill="#B7B680" fill-opacity="0.8"/>
<circle cx="282.138" cy="204.576" r="2.95291" transform="rotate(-120 282.138 204.576)" fill="#D18906" fill-opacity="0.8"/>
<circle cx="275.045" cy="174.574" r="2.95291" transform="rotate(-120 275.045 174.574)" fill="#D18906" fill-opacity="0.8"/>
<circle cx="303.229" cy="170.237" r="2.95291" transform="rotate(-120 303.229 170.237)" fill="#D18906" fill-opacity="0.8"/>
<circle cx="298.708" cy="183.076" r="2.95291" transform="rotate(-120 298.708 183.076)" fill="#D18906" fill-opacity="0.8"/>
<circle cx="250.158" cy="178.714" r="2.95291" transform="rotate(-120 250.158 178.714)" fill="#D18906" fill-opacity="0.8"/>
<circle cx="280.99" cy="152.389" r="2.95291" transform="rotate(-120 280.99 152.389)" fill="#D18906" fill-opacity="0.8"/>
<circle cx="278.442" cy="125.649" r="2.21468" transform="rotate(-120 278.442 125.649)" fill="#D18906" fill-opacity="0.8"/>
<circle cx="296.159" cy="102.025" r="2.21468" transform="rotate(-120 296.159 102.025)" fill="#D18906" fill-opacity="0.8"/>
<circle cx="284.348" cy="181.753" r="2.21468" transform="rotate(-120 284.348 181.753)" fill="#D18906" fill-opacity="0.8"/>
<circle cx="262.201" cy="137.46" r="2.21468" transform="rotate(-120 262.201 137.46)" fill="#D18906" fill-opacity="0.8"/>
<circle cx="269.753" cy="158.024" r="2.21468" transform="rotate(-120 269.753 158.024)" fill="#D18906" fill-opacity="0.8"/>
<circle cx="287.325" cy="197.319" r="2.21468" transform="rotate(-120 287.325 197.319)" fill="#D18906" fill-opacity="0.8"/>
<circle cx="304.396" cy="206.217" r="2.21468" transform="rotate(-120 304.396 206.217)" fill="#D18906" fill-opacity="0.8"/>
<circle cx="318.949" cy="184.176" r="2.21468" transform="rotate(-120 318.949 184.176)" fill="#D18906" fill-opacity="0.8"/>
<circle cx="308.126" cy="180.196" r="2.21468" transform="rotate(-120 308.126 180.196)" fill="#D18906" fill-opacity="0.8"/>
<circle cx="234.438" cy="164.774" r="2.21468" transform="rotate(-120 234.438 164.774)" fill="#D18906" fill-opacity="0.8"/>
<circle cx="231.195" cy="176.875" r="2.21468" transform="rotate(-120 231.195 176.875)" fill="#D18906" fill-opacity="0.8"/>
<circle cx="260.136" cy="157.609" r="4.42937" transform="rotate(-120 260.136 157.609)" fill="#D18906" fill-opacity="0.8"/>
<circle cx="325.757" cy="170.869" r="4.42937" transform="rotate(-120 325.757 170.869)" fill="#D18906" fill-opacity="0.8"/>
<circle cx="250.408" cy="193.913" r="4.42937" transform="rotate(-120 250.408 193.913)" fill="#D18906" fill-opacity="0.8"/>
<circle cx="302.872" cy="131.231" r="4.42937" transform="rotate(-120 302.872 131.231)" fill="#D18906" fill-opacity="0.8"/>
<circle cx="264.184" cy="203.008" r="2.95291" transform="rotate(-120 264.184 203.008)" fill="#D18906" fill-opacity="0.8"/>
<circle cx="264.184" cy="203.008" r="2.95291" transform="rotate(-120 264.184 203.008)" fill="#D18906" fill-opacity="0.8"/>
</svg>
