<svg width="96" height="96" viewBox="0 0 96 96" fill="none" xmlns="http://www.w3.org/2000/svg">
<path d="M92.8359 91.4327L8.73107 91.748C2.97031 90.9129 2.06111 90.9163 2.50011 84.919C3.45205 71.9138 4.1144 64.6412 7.56787 52.3514C10.6968 41.2165 17.9945 40.8915 24.0621 43.1529C30.1296 45.4143 33.6551 60.819 36.5714 75.0838C38.7955 85.9626 41.2865 81.7278 42.4949 80.2005C44.4538 75.9105 45.9625 73.3352 50.6276 60.7554C64.4111 23.5866 75.2248 20.6909 83.7652 41.5014C92.2853 62.2624 91.2775 74.8787 92.8359 91.4327Z" fill="#D18906" fill-opacity="0.7"/>
<path fill-rule="evenodd" clip-rule="evenodd" d="M24.9413 25.84C22.2809 25.8632 19.8501 24.26 18.0396 21.694C16.0189 18.83 14.3209 15.281 14.7647 11.4168C15.242 7.25998 17.4612 3.80637 20.3116 1.90947C23.2252 -0.0295103 26.764 -0.557005 29.6174 1.5325C32.3156 3.50837 33.3315 7.73325 33.7599 11.7577C34.1358 15.2888 33.4737 18.8231 31.7508 21.5744C30.0687 24.2605 27.5861 25.817 24.9413 25.84Z" fill="#B7B680" fill-opacity="0.8"/>
<path fill-rule="evenodd" clip-rule="evenodd" d="M22.9433 25.9155C20.3209 25.9386 17.9249 24.3305 16.1403 21.7568C14.1484 18.8843 12.4746 15.3247 12.9119 11.4491C13.3823 7.28004 15.5696 3.81632 18.3791 1.91395C21.251 -0.0306269 24.7392 -0.559514 27.5517 1.53631C30.2114 3.51814 31.2129 7.75556 31.6353 11.7919C32.0059 15.3335 31.3534 18.8782 29.6552 21.6376C27.9973 24.3315 25.5503 25.8925 22.9433 25.9155Z" stroke="black"/>
<path d="M50.9283 59.4134C64.0285 17.2594 85.906 -2.65521 95.8029 94.591L11.1882 94.591L6.62079 94.591C0.691414 93.6359 0.726907 91.6569 1.21352 85.1644C2.26874 71.0857 2.99275 63.2138 6.62067 49.9319C9.90769 37.8981 17.4269 37.6102 23.6641 40.113C29.9014 42.6158 33.4446 59.3332 36.3669 74.8104C38.5955 86.6138 41.1858 82.0486 42.4393 80.4048C44.4818 75.7751 46.6117 73.3037 50.9283 59.4134Z" stroke="black"/>
</svg>
