<svg width="226" height="189" viewBox="0 0 226 189" fill="none" xmlns="http://www.w3.org/2000/svg">
<path d="M203.684 159.39L18.0667 159.932C5.35282 158.485 3.34625 158.491 4.31471 148.105C6.41479 125.583 7.87611 112.988 15.497 91.7051C22.4018 72.422 38.5076 71.8595 51.8987 75.7761C65.2897 79.6926 73.0714 106.371 79.5086 131.074C84.4178 149.914 89.9151 142.581 92.5819 139.936C96.9048 132.506 100.234 128.047 110.529 106.261C140.947 41.8935 164.812 36.8795 183.662 72.9193C202.467 108.873 200.243 130.722 203.684 159.39Z" fill="#D18906" fill-opacity="0.7"/>
<path d="M103.015 140.822C103.976 141.185 104.755 141.571 105.35 141.979C105.985 142.396 106.458 142.82 106.771 143.251C107.127 143.651 107.382 144.05 107.538 144.449C107.733 144.855 107.911 145.238 108.071 145.597C108.014 145.748 107.82 145.687 107.49 145.415C107.199 145.151 106.908 144.887 106.617 144.623C105.818 143.887 104.818 143.333 103.617 142.961C102.417 142.589 101.272 142.432 100.184 142.49C99.1389 142.516 98.2676 142.782 97.5698 143.287C96.8721 143.793 96.6287 144.535 96.8396 145.515C97.0506 146.495 97.5098 147.404 98.2173 148.243C98.964 149.09 99.7957 149.894 100.712 150.654C101.634 151.375 102.559 152.056 103.489 152.697C104.419 153.338 105.173 153.943 105.751 154.51C106.583 154.236 107.289 154.017 107.868 153.853C108.452 153.649 108.972 153.473 109.43 153.324C109.892 153.136 110.349 152.987 110.802 152.878C111.299 152.737 111.856 152.589 112.475 152.433C112.558 152.41 112.619 152.402 112.658 152.41C112.736 152.427 112.729 152.486 112.638 152.589C112.59 152.66 112.415 152.787 112.114 152.968C111.857 153.118 111.432 153.335 110.84 153.618C110.543 153.76 109.996 153.991 109.199 154.313C108.401 154.635 107.541 154.985 106.617 155.362C107.038 155.897 107.359 156.432 107.58 156.966C107.766 157.452 107.869 157.962 107.889 158.495C107.953 158.996 107.819 159.477 107.487 159.937C106.562 161.046 105.57 161.856 104.511 162.367C103.451 162.879 102.495 163.188 101.642 163.295C101.071 163.38 100.462 163.273 99.8141 162.976C99.1662 162.678 98.6731 162.25 98.3349 161.691C97.9753 160.965 97.9313 160.285 98.2027 159.65C98.5089 159.063 98.9499 158.524 99.5257 158.034C100.106 157.504 100.76 157.03 101.488 156.612C102.216 156.194 102.859 155.82 103.417 155.489C103.109 155.018 102.477 154.398 101.521 153.629C100.57 152.821 99.5839 151.965 98.5631 151.061C97.5859 150.125 96.711 149.17 95.9385 148.195C95.166 147.221 94.7851 146.328 94.7958 145.516C94.737 144.609 94.948 143.799 95.4285 143.085C95.8744 142.324 96.4832 141.719 97.2548 141.269C98.07 140.788 98.9631 140.506 99.9341 140.424C100.949 140.31 101.976 140.442 103.015 140.822ZM100.197 161.164C100.606 161.452 101.095 161.554 101.666 161.47C102.236 161.385 102.779 161.193 103.293 160.893C103.842 160.642 104.317 160.334 104.719 159.97C105.164 159.575 105.465 159.21 105.623 158.877C105.776 158.583 105.696 158.221 105.384 157.79C105.115 157.327 104.818 156.94 104.492 156.628C104.025 156.856 103.489 157.172 102.883 157.574C102.282 157.937 101.736 158.332 101.248 158.759C100.798 159.194 100.449 159.63 100.2 160.066C99.9507 160.502 99.9498 160.868 100.197 161.164Z" fill="#3F493A"/>
<path d="M72.4526 151.907C73.8168 152.667 74.6375 153.669 74.9146 154.913C75.1893 156.117 75.0704 157.409 74.5579 158.787C74.0829 160.127 73.3305 161.497 72.3008 162.899C71.2711 164.301 70.1327 165.56 68.8856 166.676C68.7356 166.831 68.5282 167.023 68.2633 167.254C67.9959 167.445 67.7297 167.656 67.4648 167.886C67.1974 168.077 66.93 168.268 66.6626 168.459C66.4327 168.611 66.2615 168.745 66.149 168.861C64.3122 170.118 62.4442 171.194 60.545 172.09C58.6433 172.947 56.5979 173.739 54.4089 174.467C53.4218 174.635 52.5448 174.647 51.7777 174.503C51.0106 174.359 50.3584 174.14 49.8212 173.844C49.324 173.549 48.9443 173.218 48.682 172.851C48.4197 172.485 48.2998 172.162 48.3223 171.884C49.2943 172.114 50.0214 172.256 50.5037 172.311C51.0234 172.328 51.422 172.32 51.6993 172.289C51.9742 172.218 52.1691 172.145 52.2841 172.069C52.3965 171.953 52.5502 171.858 52.7452 171.784C52.7278 170.868 52.6967 170.05 52.6519 169.331C52.607 168.613 52.5659 167.954 52.5285 167.355C52.5311 166.757 52.515 166.179 52.4801 165.62C52.4852 165.063 52.489 164.485 52.4916 163.887C52.347 162.209 52.1936 160.71 52.0314 159.39C51.9092 158.072 51.8207 156.973 51.7658 156.095C50.7138 156.5 49.9366 156.834 49.4343 157.097C48.9695 157.322 48.6209 157.49 48.3885 157.602C48.1561 157.714 47.9999 157.769 47.9199 157.767C47.88 157.765 47.7775 157.722 47.6126 157.637C47.4477 157.552 47.339 157.41 47.2866 157.209C47.2317 156.968 47.1967 156.728 47.1818 156.488C47.1643 156.209 47.1644 155.89 47.1819 155.532C47.4493 155.341 47.6992 155.19 47.9316 155.077C48.1616 154.925 48.4115 154.774 48.6814 154.623C48.9912 154.473 49.3598 154.306 49.7871 154.12C50.212 153.894 50.7518 153.593 51.4065 153.215C51.2793 151.816 51.1621 150.578 51.0548 149.498C50.9875 148.42 50.8828 147.381 50.7405 146.381C50.6357 145.341 50.4885 144.261 50.2988 143.139C50.149 142.019 49.9694 140.738 49.7597 139.297C49.7497 139.138 49.4724 139.169 48.9276 139.391C48.3803 139.573 47.7606 139.872 47.0684 140.288C46.3736 140.665 45.6839 141.121 44.9991 141.657C44.3544 142.195 43.8895 142.738 43.6046 143.287C43.3071 143.636 43.1084 143.968 43.0084 144.284C42.8684 144.598 42.7659 144.874 42.7009 145.111C42.5935 145.307 42.521 145.424 42.4835 145.463C42.4035 145.46 42.2749 145.316 42.0975 145.032C42.1127 143.997 42.3527 143.048 42.8176 142.186C43.2801 141.284 43.8699 140.506 44.5872 139.851C45.3019 139.157 46.0841 138.584 46.9338 138.132C47.8209 137.642 48.6743 137.251 49.494 136.958C49.5066 136.52 49.4854 136.181 49.4304 135.94C49.3755 135.699 49.3818 135.48 49.4493 135.283C49.6467 135.25 49.9341 135.059 50.3115 134.713C50.6864 134.326 50.9538 134.135 51.1137 134.14C51.2086 134.383 51.2835 134.624 51.3384 134.865C51.3909 135.066 51.4421 135.247 51.492 135.408C51.5445 135.608 51.5957 135.789 51.6456 135.95C52.6477 135.384 53.8034 135.042 55.1128 134.924C56.4197 134.766 57.6778 134.786 58.8872 134.984C60.1341 135.142 61.231 135.456 62.1779 135.924C63.1624 136.354 63.8319 136.853 64.1867 137.422C65.0535 138.525 65.4094 139.752 65.2543 141.101C65.0966 142.411 64.6778 143.693 63.998 144.946C63.3581 146.201 62.552 147.351 61.5798 148.396C60.6476 149.443 59.8404 150.254 59.1581 150.83C60.3825 150.63 61.6307 150.49 62.9026 150.41C64.1745 150.331 65.3926 150.349 66.557 150.466C67.7589 150.544 68.8658 150.698 69.8778 150.929C70.8898 151.161 71.748 151.486 72.4526 151.907ZM51.9862 138.531C51.9833 141.041 52.1491 143.377 52.4835 145.539C52.818 147.701 53.0975 149.941 53.322 152.259C54.334 151.853 55.3574 151.308 56.392 150.623C57.4266 149.939 58.3925 149.112 59.2897 148.145C60.187 147.177 60.9568 146.086 61.5992 144.871C62.2416 143.656 62.6753 142.295 62.9005 140.788C62.9731 140.033 62.6733 139.386 62.0012 138.847C61.3667 138.269 60.5246 137.884 59.4752 137.692C58.4233 137.459 57.2226 137.401 55.8732 137.518C54.5639 137.636 53.2682 137.974 51.9862 138.531ZM55.0466 171.259C57.1282 170.728 59.2673 169.839 61.4639 168.593C63.6605 167.348 65.6298 165.976 67.3717 164.477C69.1511 162.939 70.5494 161.37 71.5667 159.768C72.5815 158.127 72.9478 156.644 72.6657 155.32C72.4509 154.437 71.574 153.812 70.0348 153.444C68.5331 153.038 66.7665 152.863 64.735 152.919C62.701 152.934 60.6395 153.148 58.5504 153.56C56.5014 153.973 54.8196 154.518 53.5051 155.194C53.54 155.753 53.6011 156.731 53.6883 158.128C53.773 159.485 53.8864 160.983 54.0286 162.621C54.1707 164.259 54.3316 165.878 54.5113 167.477C54.6909 169.077 54.8694 170.337 55.0466 171.259Z" fill="#3F493A"/>
<path d="M93.1198 156.179C93.2397 156.183 93.3247 156.265 93.3746 156.426C93.4246 156.587 93.437 156.787 93.412 157.025C93.4244 157.224 93.3969 157.423 93.3294 157.62C93.3019 157.818 93.2706 157.957 93.2356 158.035C92.7934 157.982 92.0937 157.959 91.1367 157.969C90.1772 157.939 89.1802 157.947 88.1457 157.994C87.1087 158.001 86.1741 158.051 85.342 158.145C84.5074 158.198 84.0151 158.302 83.8652 158.457C83.6179 157.692 83.6006 157.094 83.813 156.662C84.0655 156.232 84.5128 156.047 85.155 156.107C85.8746 156.129 86.4943 156.149 87.014 156.165C87.5713 156.143 88.1297 156.141 88.6895 156.159C89.2492 156.176 89.8689 156.196 90.5485 156.217C91.2257 156.199 92.0828 156.186 93.1198 156.179Z" fill="#3F493A"/>
<path d="M220.047 144.311C220.01 144.55 219.918 145.047 219.769 145.804C219.66 146.561 219.533 147.458 219.388 148.494C219.243 149.491 219.119 150.548 219.015 151.665C218.911 152.782 218.847 153.84 218.821 154.839C218.836 155.839 218.909 156.7 219.039 157.423C219.209 158.106 219.455 158.531 219.777 158.698C220.703 159.159 221.641 159.039 222.59 158.34C223.539 157.601 224.642 156.486 225.9 154.994C226.02 154.997 226.022 155.157 225.907 155.474C225.831 155.793 225.677 156.149 225.443 156.544C225.248 156.899 225.033 157.274 224.799 157.669C224.605 158.025 224.448 158.261 224.33 158.378C224.016 158.771 223.563 159.221 222.97 159.728C222.378 160.195 221.744 160.581 221.068 160.886C220.393 161.151 219.735 161.256 219.094 161.202C218.494 161.149 217.989 160.778 217.579 160.09C217.372 159.605 217.243 159.023 217.193 158.342C217.143 157.621 217.132 156.901 217.162 156.182C217.191 155.463 217.242 154.805 217.313 154.206C217.384 153.608 217.438 153.17 217.474 152.89C216.657 154.432 215.718 155.891 214.659 157.267C213.6 158.643 212.556 159.72 211.528 160.497C210.5 161.274 209.546 161.673 208.667 161.694C207.789 161.754 207.101 161.239 206.606 160.149C206.311 159.103 206.294 157.943 206.555 156.669C206.816 155.356 207.218 154.185 207.763 153.157C208.582 151.736 209.442 150.435 210.345 149.256C211.247 148.076 212.212 147.078 213.239 146.26C214.267 145.443 215.338 144.867 216.452 144.532C217.606 144.157 218.804 144.083 220.047 144.311ZM208.992 159.302C209.393 159.39 210.029 159.105 210.898 158.444C211.768 157.783 212.674 156.863 213.617 155.685C214.558 154.466 215.397 153.065 216.134 151.482C216.91 149.859 217.405 148.151 217.618 146.356C217.458 146.353 217.218 146.348 216.898 146.341C216.618 146.334 216.28 146.447 215.884 146.678C214.379 147.645 213.096 148.796 212.036 150.132C210.976 151.429 210.155 152.71 209.574 153.977C208.992 155.203 208.649 156.315 208.543 157.313C208.438 158.31 208.587 158.973 208.992 159.302Z" fill="#3F493A"/>
<path d="M170.562 145.236C171.323 145.285 172.166 145.416 173.09 145.628C174.013 145.8 174.918 146.052 175.805 146.383C176.691 146.674 177.499 147.024 178.227 147.434C178.995 147.803 179.624 148.231 180.115 148.717C180.604 149.163 180.899 149.847 180.999 150.768C181.098 151.648 181.06 152.627 180.883 153.705C180.707 154.782 180.411 155.897 179.996 157.051C179.621 158.166 179.183 159.18 178.683 160.093C178.183 161.006 177.64 161.759 177.053 162.351C176.466 162.943 175.913 163.235 175.393 163.229C174.513 163.217 173.768 163.008 173.16 162.6C172.55 162.153 172.059 161.627 171.686 161.022C171.313 160.417 171.019 159.794 170.805 159.152C170.631 158.47 170.518 157.889 170.468 157.408C170.301 155.287 170.24 153.407 170.285 151.769C170.329 150.13 170.439 148.772 170.616 147.695C170.492 147.494 170.368 147.312 170.244 147.151C170.121 146.989 169.998 146.848 169.875 146.726C169.752 146.565 169.609 146.423 169.446 146.301C169.604 146.223 169.762 146.105 169.918 145.947C170.233 145.711 170.448 145.474 170.562 145.236ZM173.033 159.54C173.157 159.702 173.321 159.884 173.525 160.086C173.728 160.249 173.971 160.392 174.254 160.515C174.576 160.6 174.896 160.604 175.214 160.528C175.532 160.452 175.867 160.236 176.219 159.881C177.158 158.894 177.855 157.883 178.313 156.85C178.769 155.776 179.047 154.78 179.147 153.862C179.286 152.904 179.248 152.064 179.032 151.342C178.857 150.62 178.565 150.097 178.158 149.771C177.834 149.567 177.551 149.404 177.308 149.281C177.105 149.118 176.821 148.975 176.459 148.85C176.136 148.726 175.714 148.6 175.191 148.474C174.668 148.307 173.983 148.098 173.138 147.848C172.766 149.122 172.514 150.398 172.382 151.676C172.25 152.953 172.196 154.132 172.219 155.212C172.282 156.252 172.382 157.173 172.519 157.974C172.696 158.736 172.867 159.258 173.033 159.54Z" fill="#3F493A"/>
<path d="M203.283 155.933C203.36 156.019 203.335 156.158 203.209 156.349C203.123 156.543 202.977 156.752 202.77 156.977C202.603 157.205 202.416 157.431 202.209 157.656C202.043 157.844 201.919 157.975 201.836 158.049C200.845 159.056 199.958 159.931 199.175 160.673C198.393 161.376 197.754 161.989 197.258 162.512C197.256 162.552 197.23 162.771 197.177 163.167C197.163 163.607 197.156 163.847 197.154 163.887C197.032 165.24 196.949 166.597 196.906 167.956C196.902 169.358 196.778 170.752 196.534 172.136C196.245 173.717 195.945 174.977 195.635 175.915C195.365 176.897 195.08 177.677 194.782 178.256C194.483 178.874 194.167 179.371 193.835 179.747C193.542 180.166 193.208 180.621 192.833 181.114C192.5 181.53 192.129 181.883 191.72 182.172C191.311 182.462 190.76 182.801 190.068 183.19C189.133 183.681 188.163 184.028 187.157 184.233C186.151 184.437 185.232 184.408 184.401 184.145C183.568 183.922 182.884 183.43 182.348 182.668C181.773 181.903 181.468 180.798 181.434 179.353C181.404 177.748 181.733 176.189 182.421 174.678C183.108 173.167 183.911 171.805 184.828 170.592C185.746 169.379 186.638 168.364 187.503 167.548C188.369 166.731 188.966 166.175 189.295 165.879C189.831 165.359 190.305 164.913 190.717 164.544C191.168 164.177 191.619 163.83 192.069 163.504C192.518 163.217 192.988 162.892 193.479 162.528C194.01 162.167 194.624 161.733 195.319 161.224C195.509 160.276 195.64 159.285 195.713 158.248C195.787 157.172 195.822 156.072 195.817 154.95C195.052 156.375 194.238 157.476 193.374 158.252C192.55 159.031 191.792 159.615 191.1 160.004C190.449 160.356 189.902 160.575 189.46 160.662C189.058 160.712 188.897 160.74 188.977 160.746C188.216 160.809 187.596 160.802 187.119 160.726C186.683 160.613 186.327 160.466 186.053 160.285C185.82 160.067 185.628 159.832 185.476 159.58C185.364 159.331 185.271 159.084 185.199 158.838C185.033 157.783 185.066 156.724 185.299 155.659C185.574 154.558 185.947 153.524 186.417 152.558C186.887 151.591 187.395 150.708 187.94 149.907C188.485 149.107 188.985 148.463 189.44 147.977C189.522 147.903 189.708 147.716 189.997 147.417C190.328 147.082 190.739 146.732 191.23 146.368C191.722 145.965 192.315 145.568 193.007 145.18C193.738 144.794 194.569 144.456 195.497 144.165C196.421 144.035 197.361 144.025 198.317 144.138C199.274 144.21 200.045 144.488 200.63 144.973C200.307 145.069 199.803 145.191 199.119 145.34C198.476 145.452 198.053 145.54 197.851 145.605L197.847 145.725C197.843 145.845 197.881 145.908 197.961 145.914C197.288 145.703 196.222 145.903 194.764 146.515C193.305 147.126 191.706 148.388 189.966 150.301C189.175 151.323 188.565 152.259 188.139 153.108C187.713 153.918 187.391 154.635 187.171 155.259C186.993 155.847 186.897 156.361 186.883 156.801C186.869 157.24 186.878 157.582 186.91 157.825C186.945 157.988 187.08 158.138 187.316 158.276C187.551 158.414 187.85 158.457 188.212 158.404C189.256 158.242 190.23 157.794 191.133 157.061C192.076 156.291 192.924 155.413 193.674 154.427C194.465 153.445 195.135 152.474 195.686 151.513C196.236 150.553 196.64 149.782 196.898 149.2C197.326 148.311 197.552 147.486 197.576 146.727C197.641 145.93 197.633 145.529 197.554 145.523C197.554 145.523 197.574 145.524 197.614 145.527C197.693 145.533 197.753 145.538 197.793 145.541C197.833 145.544 197.832 145.564 197.791 145.601C197.791 145.601 197.671 145.612 197.43 145.634C197.513 145.56 197.594 145.526 197.673 145.532C197.754 145.498 197.835 145.464 197.916 145.43C197.878 145.387 197.879 145.347 197.92 145.31C198.003 145.236 198.084 145.202 198.163 145.208C198.166 145.128 198.268 145.056 198.47 144.991L198.833 144.898L199.016 144.791C199.178 144.723 199.28 144.671 199.321 144.634C199.362 144.597 199.403 144.58 199.442 144.583C199.522 144.589 199.641 144.638 199.798 144.73C199.956 144.782 200.233 144.883 200.628 145.033C200.239 145.966 199.882 147.121 199.559 148.499C199.277 149.84 199.014 151.203 198.77 152.588C198.527 153.972 198.305 155.298 198.105 156.565C197.946 157.795 197.796 158.766 197.653 159.476C197.983 159.181 198.453 158.835 199.065 158.441C199.717 158.049 200.35 157.656 200.962 157.261C201.695 156.836 202.468 156.393 203.283 155.933ZM195.417 165.74C195.565 164.829 195.563 164.268 195.41 164.056C195.334 163.93 195.235 163.883 195.114 163.914C194.01 164.712 193.109 165.385 192.412 165.934C191.715 166.483 191.244 166.848 190.998 167.03C189.027 168.684 187.541 170.155 186.541 171.442C185.579 172.773 184.921 174.005 184.565 175.141C184.086 176.387 183.791 177.487 183.681 178.44C183.61 179.437 183.839 180.416 184.368 181.378C185.341 182.212 186.414 182.434 187.586 182.041C188.796 181.691 189.915 181.074 190.943 180.19C192.141 178.958 193.137 177.17 193.931 174.825C194.723 172.52 195.218 169.492 195.417 165.74Z" fill="#3F493A"/>
<path d="M144.173 145.269C144.293 145.236 144.634 145.157 145.194 145.031C145.755 144.865 146.214 144.852 146.573 144.994C147.731 145.025 148.607 145.378 149.2 146.054C149.832 146.733 149.881 147.976 149.345 149.785C148.567 151.779 147.533 153.417 146.243 154.699C144.993 155.984 143.503 157.194 141.775 158.33C142.165 159.394 142.758 160.011 143.556 160.179C144.353 160.348 145.193 160.279 146.074 159.972C146.956 159.625 147.82 159.157 148.664 158.568C149.508 157.979 150.192 157.46 150.716 157.012C151.561 156.343 152.225 155.783 152.709 155.332C153.233 154.843 153.778 154.256 154.343 153.57C154.464 153.497 154.523 153.521 154.522 153.641C154.562 153.723 154.56 153.863 154.518 154.061C154.477 154.258 154.414 154.535 154.331 154.89C154.209 155.163 154.086 155.415 153.964 155.648C153.843 155.841 153.661 156.07 153.419 156.335C153.217 156.563 152.935 156.846 152.572 157.184C152.209 157.523 151.766 157.976 151.241 158.544C150.637 159.068 150.053 159.593 149.489 160.119C148.925 160.605 148.322 161.029 147.679 161.39C147.077 161.754 146.395 161.992 145.635 162.106C144.915 162.223 144.077 162.172 143.12 161.954C142.324 161.625 141.688 161.286 141.212 160.937C140.735 160.588 140.359 160.245 140.083 159.908C139.846 159.534 139.67 159.203 139.553 158.916C139.435 158.628 139.358 158.384 139.32 158.181C139.127 157.369 139.058 156.284 139.11 154.927C139.163 153.569 139.578 151.834 140.357 149.72C140.886 148.631 141.454 147.725 142.06 147.002C142.666 146.238 143.371 145.66 144.173 145.269ZM141.44 155.729C141.961 155.48 142.564 155.136 143.247 154.698C143.97 154.221 144.635 153.681 145.239 153.078C145.885 152.436 146.43 151.729 146.877 150.956C147.364 150.185 147.631 149.361 147.679 148.483C147.804 147.89 147.788 147.469 147.631 147.22C147.552 147.095 147.473 147.03 147.393 147.025C146.717 146.664 146.037 146.723 145.354 147.202C144.67 147.68 144.044 148.383 143.477 149.309C142.909 150.235 142.42 151.286 142.009 152.461C141.639 153.6 141.449 154.689 141.44 155.729Z" fill="#3F493A"/>
<path d="M137.443 131.688C137.405 132.405 137.352 133.164 137.283 133.962C137.215 134.76 137.121 135.519 137.004 136.239C136.926 136.957 136.857 137.576 136.796 138.096C136.736 138.615 136.692 138.934 136.666 139.054C136.504 139.735 136.284 140.616 136.007 141.698C135.731 142.78 135.381 143.923 134.958 145.127C134.571 146.291 134.106 147.476 133.563 148.683C133.016 149.85 132.43 150.859 131.806 151.709C131.874 152.305 132.051 153.317 132.335 154.745C132.655 156.132 133.009 157.638 133.396 159.263C133.783 160.888 134.146 162.474 134.484 164.02C134.866 165.605 135.128 166.835 135.268 167.708C135.091 167.911 134.907 167.875 134.715 167.601C134.523 167.326 134.228 166.854 133.831 166.186C133.472 165.158 133.162 164.208 132.902 163.338C132.681 162.466 132.461 161.594 132.241 160.723C132.016 159.811 131.766 158.861 131.492 157.871C131.258 156.88 130.928 155.751 130.501 154.486C129.851 155.456 129.057 156.569 128.119 157.824C127.216 159.039 126.24 160.136 125.19 161.115C124.175 162.053 123.131 162.733 122.056 163.155C121.018 163.536 120.057 163.377 119.175 162.679C118.623 162.054 118.338 161.323 118.322 160.487C118.262 159.612 118.401 158.732 118.741 157.849C119.035 156.926 119.453 156.021 119.992 155.132C120.571 154.243 121.157 153.414 121.751 152.644C122.344 151.874 122.908 151.205 123.444 150.636C123.98 150.066 124.374 149.659 124.627 149.415C125.145 149.045 125.573 148.757 125.91 148.55C126.283 148.303 126.602 148.117 126.869 147.992C127.17 147.826 127.479 147.719 127.794 147.673C128.105 147.586 128.503 147.558 128.987 147.587C128.802 146.675 128.616 145.583 128.43 144.313C128.284 143.041 128.138 141.769 127.992 140.498C127.881 139.185 127.782 137.973 127.694 136.859C127.646 135.745 127.648 134.888 127.699 134.289C127.679 133.413 127.754 132.496 127.924 131.536C128.134 130.575 128.409 129.653 128.749 128.769C129.123 127.845 129.552 127.039 130.034 126.351C130.512 125.623 131.055 125.114 131.662 124.822C132.306 124.489 132.976 124.395 133.675 124.539C134.413 124.682 135.17 125.164 135.945 125.983C136.583 126.647 136.961 127.495 137.08 128.528C137.194 129.522 137.315 130.575 137.443 131.688ZM131.354 147.775C131.982 146.964 132.486 146.117 132.866 145.232C133.241 144.308 133.657 143.223 134.115 141.978C134.512 140.894 134.814 139.513 135.022 137.835C135.27 136.157 135.383 134.521 135.36 132.928C135.333 131.295 135.171 129.884 134.874 128.696C134.577 127.507 134.104 126.88 133.455 126.814C132.886 126.747 132.391 126.977 131.971 127.504C131.546 127.991 131.177 128.617 130.863 129.38C130.546 130.104 130.295 130.887 130.111 131.727C129.927 132.568 129.811 133.307 129.764 133.946C129.696 134.744 129.658 135.462 129.651 136.099C129.684 136.736 129.722 137.413 129.764 138.129C129.842 138.804 129.909 139.56 129.964 140.395C130.016 141.191 130.05 142.186 130.067 143.381C130.136 143.977 130.224 144.572 130.333 145.168C130.481 145.762 130.62 146.277 130.751 146.712C130.916 147.107 131.053 147.423 131.16 147.659C131.263 147.856 131.328 147.895 131.354 147.775ZM123.293 153.507C122.341 154.643 121.66 155.694 121.25 156.659C120.875 157.583 120.573 158.446 120.345 159.248C120.358 159.367 120.381 159.566 120.413 159.844C120.441 160.082 120.488 160.32 120.555 160.558C120.663 160.795 120.808 161.011 120.991 161.206C121.209 161.361 121.513 161.394 121.904 161.306C122.286 161.138 122.587 160.972 122.809 160.808C123.071 160.643 123.292 160.479 123.474 160.315C123.691 160.111 123.908 159.908 124.125 159.704C124.382 159.499 124.693 159.233 125.056 158.907C125.547 158.298 126.15 157.608 126.863 156.836C127.616 156.062 128.244 155.252 128.748 154.405C129.292 153.556 129.614 152.693 129.713 151.814C129.813 150.935 129.455 150.087 128.639 149.268C128.359 149.274 128.064 149.32 127.753 149.407C127.482 149.492 127.145 149.699 126.742 150.026C126.334 150.314 125.842 150.743 125.266 151.313C124.725 151.843 124.068 152.574 123.293 153.507Z" fill="#3F493A"/>
<path d="M113.353 137.812C113.751 137.761 113.992 138.018 114.074 138.583C114.156 139.149 114.078 139.563 113.84 139.826C113.402 140.155 113.125 140.455 113.006 140.727C112.887 140.958 112.609 141.098 112.17 141.147C111.931 141.09 111.711 141.074 111.512 141.1C111.352 141.088 111.211 140.739 111.089 140.05C111.246 139.621 111.484 139.198 111.801 138.781C112.158 138.367 112.675 138.044 113.353 137.812ZM113.566 145.625C113.773 147.559 113.922 149.689 114.012 152.015C114.101 154.3 114.251 156.71 114.462 159.244C114.627 160.536 114.791 161.547 114.953 162.279C115.116 163.01 115.239 163.698 115.321 164.344C114.683 164.419 114.185 164.383 113.825 164.237C113.465 164.052 113.125 163.848 112.805 163.625C112.723 162.979 112.618 161.912 112.492 160.424C112.406 158.938 112.3 157.331 112.173 155.602C112.085 153.837 111.978 152.13 111.851 150.481C111.765 148.835 111.679 147.53 111.595 146.564C111.755 146.495 111.874 146.384 111.953 146.23C112.072 146.078 112.191 145.947 112.31 145.835C112.429 145.724 112.588 145.635 112.788 145.569C112.987 145.504 113.246 145.522 113.566 145.625Z" fill="#3F493A"/>
<path d="M167.666 153.931C167.281 155.99 166.813 158.264 166.263 160.754C165.713 163.243 165.144 165.632 164.557 167.919C163.969 170.167 163.405 172.155 162.865 173.885C162.324 175.615 161.851 176.728 161.445 177.225C160.965 177.277 160.446 177.227 159.888 177.074C159.371 176.924 159.234 176.636 159.479 176.21C160.259 174.574 161.022 172.617 161.769 170.339C162.393 168.374 163.042 165.97 163.716 163.127C164.431 160.287 165.031 156.96 165.518 153.146C164.839 153.106 164.202 152.929 163.606 152.614C163.011 152.26 162.456 151.867 161.942 151.437C161.429 150.967 160.935 150.458 160.463 149.91C159.99 149.362 159.557 148.837 159.163 148.334C158.574 147.539 157.967 146.463 157.345 145.106C156.762 143.751 156.22 142.319 155.719 140.809C155.218 139.299 154.817 137.814 154.515 136.356C154.174 134.855 153.95 133.601 153.842 132.594C153.845 132.394 153.966 132.261 154.207 132.195C154.408 132.127 154.668 132.102 154.987 132.121C155.307 132.139 155.646 132.199 156.004 132.3C156.323 132.358 156.602 132.415 156.841 132.469C157.191 136.531 157.85 139.812 158.818 142.31C159.827 144.77 160.842 146.69 161.864 148.07C163.083 149.702 164.407 150.88 165.836 151.603C166.137 149.94 166.36 148.011 166.507 145.818C166.694 143.628 166.82 141.534 166.884 139.536C166.949 137.499 166.971 135.739 166.949 134.257C166.927 132.775 166.899 131.872 166.863 131.55C167.147 131.166 167.449 130.984 167.769 131.002C168.128 131.023 168.645 131.193 169.321 131.513C169.347 132.595 169.332 133.815 169.276 135.172C169.259 136.532 169.201 137.95 169.103 139.425C169.006 140.86 168.888 142.334 168.749 143.847C168.651 145.323 168.534 146.717 168.398 148.03C168.262 149.303 168.128 150.476 167.995 151.549C167.902 152.584 167.793 153.378 167.666 153.931Z" fill="#3F493A"/>
<path fill-rule="evenodd" clip-rule="evenodd" d="M53.8383 45.7928C47.9669 45.833 42.6023 43.0566 38.6066 38.6128C34.1469 33.6529 30.3995 27.5068 31.3788 20.8148C32.4323 13.6162 37.33 7.63523 43.6208 4.35019C50.0511 0.992293 57.8611 0.0787851 64.1584 3.69737C70.1132 7.11915 72.3554 14.4357 73.3009 21.4052C74.1304 27.5203 72.6692 33.6411 68.8668 38.4057C65.1544 43.0575 59.6755 45.7529 53.8383 45.7928Z" fill="#B7B680" fill-opacity="0.8"/>
<path fill-rule="evenodd" clip-rule="evenodd" d="M49.4286 45.9238C43.6412 45.9639 38.3533 43.179 34.4146 38.7219C30.0185 33.7473 26.3246 27.5828 27.2896 20.8711C28.3278 13.6512 33.1551 7.65277 39.3557 4.35826C45.6939 0.990675 53.3921 0.0747554 59.5994 3.70427C65.4691 7.13639 67.6795 14.4747 68.6117 21.4648C69.4296 27.5981 67.9895 33.7368 64.2417 38.5154C60.5827 43.1808 55.1822 45.884 49.4286 45.9238Z" stroke="black"/>
<path d="M206.277 148.53C185.831 -2.07191 142.996 34.4208 111.19 103.935C100.425 127.462 96.9624 132.27 92.4548 140.288C89.6883 143.134 83.9716 151.04 79.0531 130.599C72.6037 103.796 64.7838 74.8451 51.0185 70.5107C37.2531 66.1764 20.6584 66.6751 13.404 87.515C5.39727 110.516 3.7994 124.149 1.47057 148.53C0.396621 159.774 0.318289 163.201 13.4043 164.855L23.4845 164.855L36.4299 164.855" stroke="black"/>
</svg>
