<svg width="216" height="85" viewBox="0 0 216 85" fill="none" xmlns="http://www.w3.org/2000/svg">
<path d="M90.9213 18.9659C91.0837 18.8894 91.3968 18.8207 91.8607 18.7596C92.3558 18.6633 92.7913 18.6874 93.1673 18.8319C93.2085 18.9631 93.2666 19.377 93.3415 20.0738C93.4145 20.7373 93.4974 21.5671 93.5902 22.5634C93.7163 23.5576 93.8307 24.6361 93.9334 25.7987C94.0694 26.9593 94.2034 28.0867 94.3355 29.1808C94.4655 30.2416 94.573 31.2035 94.6578 32.0667C94.774 32.8946 94.8763 33.4895 94.9647 33.8516C95.7866 33.6356 96.4608 33.4618 96.9872 33.3302C97.5136 33.1987 97.9589 33.1053 98.3229 33.0502C98.6849 32.9619 99.0147 32.8921 99.3122 32.841C99.6097 32.7898 99.9717 32.7015 100.398 32.5758C100.962 32.5088 101.394 32.4664 101.693 32.4485C102.026 32.4287 102.262 32.4647 102.401 32.5566C102.571 32.6132 102.66 32.7081 102.668 32.8412C102.709 32.9723 102.736 33.1377 102.748 33.3373C102.255 33.4669 101.681 33.6514 101.028 33.8907C100.405 34.0948 99.7509 34.3175 99.064 34.5588C98.4104 34.7981 97.7412 35.0551 97.0564 35.3297C96.4028 35.569 95.7805 35.7731 95.1895 35.9419C95.2386 36.2061 95.3223 36.7688 95.4404 37.63C95.5586 38.4911 95.7023 39.501 95.8716 40.6597C96.0409 41.8183 96.2151 43.0601 96.3943 44.3852C96.6068 45.7082 96.8173 46.9979 97.0258 48.2544C97.2323 49.4776 97.4329 50.601 97.6275 51.6246C97.8221 52.6481 98.0008 53.4055 98.1637 53.8967C98.3186 54.2548 98.405 54.5835 98.4229 54.883C98.474 55.1805 98.6016 55.6404 98.8057 56.2627C98.4809 56.4156 98.1042 56.5382 97.6756 56.6306C97.2823 56.7542 96.9319 56.7584 96.6245 56.6432C96.4343 56.2538 96.2794 55.8957 96.1597 55.569C96.0733 55.2402 95.9849 54.8781 95.8946 54.4828C95.8042 54.0875 95.7109 53.6423 95.6145 53.1471C95.5515 52.65 95.4473 52.0217 95.3018 51.2624C95.2467 50.8984 95.163 50.3357 95.0508 49.5743C94.9699 48.7777 94.8498 47.8833 94.6905 46.891C94.5644 45.8968 94.4187 44.8536 94.2534 43.7615C94.1213 42.6674 93.9933 41.6399 93.8692 40.6789C93.7431 39.6847 93.6416 38.8225 93.5646 38.0925C93.4857 37.3291 93.4373 36.7977 93.4195 36.4983C92.8285 36.6671 92.303 36.8153 91.8432 36.9429C91.4165 37.0685 90.9567 37.1961 90.4635 37.3257C90.0036 37.4533 89.4782 37.6015 88.8872 37.7704C88.2962 37.9392 87.5741 38.1492 86.7208 38.4004C86.7625 39.0992 86.8238 39.8469 86.9047 40.6435C86.9836 41.4068 87.0931 42.402 87.233 43.6292C87.3139 44.4258 87.4206 45.655 87.5531 47.3167C87.7189 48.9764 87.9006 50.9024 88.0981 53.0945C87.7753 53.2807 87.4192 53.4689 87.0298 53.6591C86.6384 53.816 86.3097 53.9024 86.0435 53.9183C85.9983 53.7206 85.943 53.0728 85.8775 51.9747C85.81 50.8434 85.7316 49.5291 85.6423 48.0317C85.553 46.5344 85.4431 44.9715 85.3126 43.343C85.2134 41.6793 85.0918 40.2006 84.9478 38.9069C83.6094 39.4208 82.4637 39.8064 81.5106 40.0636C80.5908 40.3188 80.0242 40.3359 79.8107 40.1149C79.7441 40.1188 79.7518 39.9681 79.8338 39.6627C79.9138 39.324 80.029 39.0166 80.1795 38.7405C80.7059 38.6089 81.1502 38.4989 81.5122 38.4105C81.9055 38.2869 82.25 38.1829 82.5455 38.0985C82.8722 37.9788 83.1824 37.8601 83.4759 37.7425C83.8007 37.5895 84.1901 37.3993 84.644 37.1719C84.441 35.4476 84.2489 33.9063 84.0677 32.548C83.9198 31.1877 83.7446 29.9293 83.542 28.7726C83.3727 27.614 83.1722 26.4906 82.9403 25.4025C82.7065 24.2811 82.4178 23.0794 82.0742 21.7976C82.2247 21.5215 82.5415 21.2355 83.0248 20.9395C83.5393 20.6083 84.1196 20.5403 84.7657 20.7355C84.8197 22.2016 84.9168 23.5482 85.0567 24.7753C85.1947 25.9692 85.3503 27.1788 85.5236 28.404C85.6968 29.6292 85.8731 30.9043 86.0523 32.2293C86.2315 33.5543 86.3863 35.031 86.5168 36.6595C87.2762 36.514 88.1783 36.2432 89.2233 35.8469C90.2682 35.4507 91.5138 35.0592 92.96 34.6724C92.9103 33.8405 92.8272 32.7268 92.7106 31.3313C92.594 29.9358 92.4421 28.509 92.255 27.0508C92.0678 25.5927 91.87 24.2354 91.6615 22.979C91.4843 21.6872 91.3103 20.7292 91.1395 20.1049C91.0923 19.874 91.0501 19.7262 91.0129 19.6617C90.9736 19.5638 90.9364 19.4993 90.9011 19.468C90.8991 19.4347 90.8962 19.3848 90.8922 19.3183C90.8882 19.2517 90.8979 19.1343 90.9213 18.9659ZM111.723 38.3619C111.702 38.5635 111.643 38.9844 111.548 39.6246C111.486 40.2627 111.414 41.0183 111.332 41.8914C111.249 42.7312 111.185 43.6199 111.141 44.5575C111.097 45.4952 111.083 46.3809 111.099 47.2147C111.149 48.0466 111.241 48.759 111.377 49.352C111.544 49.9097 111.764 50.2472 112.038 50.3644C112.825 50.6848 113.6 50.5217 114.363 49.8751C115.124 49.1953 115.999 48.1914 116.989 46.8635C117.088 46.8575 117.096 46.9906 117.012 47.2628C116.962 47.5329 116.846 47.8403 116.667 48.185C116.518 48.4944 116.354 48.8214 116.174 49.1661C116.026 49.4754 115.904 49.683 115.811 49.7888C115.564 50.1374 115.204 50.5429 114.731 51.0052C114.256 51.4343 113.743 51.7988 113.193 52.0987C112.642 52.3654 112.099 52.4979 111.564 52.4964C111.063 52.4929 110.629 52.2182 110.263 51.6724C110.073 51.2831 109.944 50.8065 109.877 50.2429C109.808 49.6459 109.772 49.047 109.77 48.4461C109.767 47.8451 109.785 47.2931 109.821 46.79C109.858 46.287 109.886 45.918 109.906 45.6831C109.284 47.0224 108.559 48.3012 107.73 49.5194C106.901 50.7376 106.074 51.7052 105.249 52.4223C104.423 53.1394 103.645 53.5364 102.915 53.6133C102.187 53.7235 101.597 53.3413 101.144 52.4667C100.859 51.6155 100.802 50.6505 100.971 49.5719C101.139 48.4599 101.43 47.4575 101.844 46.5646C102.471 45.325 103.138 44.1833 103.844 43.1395C104.549 42.0956 105.314 41.1985 106.137 40.4481C106.961 39.6978 107.829 39.1451 108.743 38.79C109.688 38.3998 110.682 38.257 111.723 38.3619ZM103.096 51.599C103.433 51.6457 103.95 51.3644 104.648 50.7551C105.347 50.1457 106.065 49.3182 106.804 48.2723C107.541 47.1932 108.186 45.9693 108.739 44.6006C109.323 43.1967 109.671 41.7401 109.781 40.2308C109.648 40.2388 109.448 40.2507 109.182 40.2665C108.949 40.2804 108.672 40.3971 108.351 40.6166C107.136 41.5239 106.114 42.57 105.283 43.7549C104.45 44.9065 103.816 46.0296 103.38 47.1241C102.942 48.1854 102.698 49.1349 102.648 49.9727C102.598 50.8106 102.747 51.3526 103.096 51.599ZM117.93 37.4407C117.986 38.3724 118.024 39.3051 118.047 40.2387C118.102 41.1704 118.139 42.0698 118.158 42.9369C118.209 43.8021 118.241 44.6183 118.254 45.3856C118.299 46.1509 118.323 46.834 118.326 47.4349C118.318 47.3018 118.365 46.9817 118.469 46.4747C118.603 45.9324 118.784 45.3205 119.01 44.6392C119.237 43.9578 119.478 43.2422 119.734 42.4923C120.021 41.7071 120.331 41.0208 120.663 40.4333C120.993 39.8126 121.332 39.3249 121.678 38.9703C122.057 38.6138 122.417 38.4921 122.758 38.6054C123.51 38.8945 124.054 39.3462 124.391 39.9605C124.729 40.5749 124.989 41.294 125.171 42.1179C125.352 42.9086 125.539 43.799 125.731 44.7893C125.924 45.7796 126.286 46.8099 126.817 47.8801C127.047 48.3674 127.351 48.7165 127.731 48.9276C128.144 49.1367 128.52 49.2812 128.859 49.3612C129.231 49.4392 129.518 49.4889 129.719 49.5103C129.952 49.4964 130.039 49.5413 129.978 49.6451C129.184 50.3269 128.481 50.5859 127.87 50.422C127.26 50.258 126.718 49.8562 126.246 49.2165C125.805 48.5416 125.423 47.7462 125.102 46.8304C124.778 45.8813 124.474 44.9812 124.189 44.1299C123.936 43.2435 123.708 42.5057 123.506 41.9167C123.302 41.2944 123.1 40.9892 122.901 41.0011C122.603 41.0522 122.287 41.3549 121.953 41.9091C121.652 42.4614 121.342 43.1477 121.024 43.9681C120.706 44.7885 120.409 45.6911 120.134 46.6759C119.857 47.6274 119.593 48.5281 119.343 49.3778C119.127 50.2255 118.953 50.9538 118.822 51.5627C118.692 52.1715 118.614 52.5435 118.588 52.6786C118.089 52.7083 117.774 52.7438 117.643 52.785C117.545 52.8243 117.352 52.6688 117.064 52.3187C117.056 49.3806 116.941 46.6159 116.72 44.0245C116.53 41.3978 116.327 39.1225 116.112 37.1985C116.094 36.899 116.152 36.7453 116.285 36.7374C116.452 36.7275 116.622 36.7841 116.796 36.9073C117.004 37.0285 117.211 37.1497 117.419 37.2708C117.627 37.392 117.797 37.4487 117.93 37.4407ZM131.09 36.6559C131.146 37.5875 131.185 38.5202 131.207 39.4539C131.263 40.3855 131.3 41.2849 131.318 42.1521C131.369 43.0172 131.401 43.8334 131.414 44.6007C131.459 45.366 131.483 46.0491 131.486 46.65C131.478 46.5169 131.526 46.1969 131.629 45.6898C131.764 45.1475 131.944 44.5357 132.171 43.8543C132.397 43.1729 132.638 42.4573 132.894 41.7074C133.181 40.9223 133.491 40.2359 133.823 39.6485C134.154 39.0277 134.492 38.54 134.838 38.1855C135.217 37.8289 135.577 37.7072 135.918 37.8205C136.67 38.1096 137.215 38.5613 137.552 39.1756C137.889 39.79 138.149 40.5091 138.332 41.333C138.512 42.1237 138.699 43.0142 138.892 44.0044C139.084 44.9947 139.446 46.025 139.977 47.0953C140.207 47.5825 140.512 47.9316 140.891 48.1427C141.305 48.3518 141.681 48.4964 142.019 48.5763C142.391 48.6543 142.678 48.704 142.88 48.7254C143.113 48.7115 143.199 48.7564 143.138 48.8602C142.344 49.5421 141.642 49.801 141.031 49.6371C140.42 49.4732 139.878 49.0714 139.406 48.4317C138.965 47.7567 138.584 46.9613 138.262 46.0455C137.938 45.0965 137.634 44.1963 137.35 43.3451C137.096 42.4586 136.869 41.7208 136.667 41.1318C136.462 40.5095 136.261 40.2043 136.061 40.2162C135.764 40.2674 135.448 40.57 135.113 41.1243C134.812 41.6765 134.503 42.3628 134.184 43.1832C133.866 44.0036 133.569 44.9062 133.294 45.891C133.017 46.8426 132.753 47.7432 132.503 48.5929C132.287 49.4406 132.113 50.1689 131.983 50.7778C131.852 51.3866 131.774 51.7586 131.749 51.8937C131.249 51.9235 130.934 51.9589 130.803 52.0002C130.705 52.0394 130.512 51.8839 130.224 51.5338C130.216 48.5957 130.101 45.831 129.88 43.2396C129.69 40.6129 129.487 38.3376 129.273 36.4136C129.255 36.1142 129.312 35.9605 129.445 35.9525C129.612 35.9426 129.782 35.9992 129.956 36.1224C130.164 36.2436 130.372 36.3648 130.579 36.486C130.787 36.6072 130.957 36.6638 131.09 36.6559ZM152.568 35.9259C152.547 36.1275 152.489 36.5484 152.393 37.1885C152.331 37.8267 152.259 38.5823 152.178 39.4554C152.094 40.2952 152.031 41.1839 151.986 42.1215C151.942 43.0592 151.928 43.9449 151.944 44.7787C151.994 45.6106 152.087 46.323 152.222 46.916C152.389 47.4737 152.609 47.8112 152.884 47.9284C153.671 48.2488 154.446 48.0857 155.209 47.4391C155.969 46.7593 156.845 45.7554 157.834 44.4275C157.934 44.4215 157.942 44.5546 157.858 44.8268C157.807 45.0969 157.692 45.4043 157.512 45.749C157.364 46.0584 157.199 46.3854 157.02 46.73C156.871 47.0394 156.75 47.247 156.656 47.3528C156.41 47.7014 156.05 48.1069 155.576 48.5692C155.101 48.9983 154.589 49.3628 154.039 49.6627C153.487 49.9294 152.944 50.0619 152.41 50.0604C151.909 50.0569 151.475 49.7822 151.108 49.2364C150.918 48.847 150.789 48.3705 150.722 47.8068C150.653 47.2099 150.618 46.611 150.615 46.01C150.613 45.4091 150.63 44.8571 150.667 44.354C150.704 43.8509 150.732 43.482 150.751 43.2471C150.13 44.5864 149.405 45.8652 148.576 47.0834C147.747 48.3015 146.919 49.2692 146.094 49.9863C145.269 50.7033 144.491 51.1003 143.761 51.1773C143.033 51.2875 142.442 50.9053 141.989 50.0307C141.705 49.1795 141.647 48.2145 141.817 47.1358C141.984 46.0239 142.275 45.0215 142.689 44.1286C143.317 42.889 143.983 41.7473 144.689 40.7034C145.395 39.6596 146.159 38.7625 146.983 38.0121C147.806 37.2618 148.675 36.7091 149.589 36.354C150.534 35.9637 151.527 35.821 152.568 35.9259ZM143.941 49.163C144.278 49.2097 144.795 48.9284 145.494 48.319C146.192 47.7097 146.911 46.8821 147.65 45.8363C148.387 44.7572 149.032 43.5333 149.585 42.1646C150.169 40.7606 150.516 39.3041 150.626 37.7948C150.493 37.8028 150.294 37.8147 150.027 37.8305C149.794 37.8444 149.518 37.9611 149.197 38.1806C147.982 39.0879 146.959 40.134 146.128 41.3189C145.295 42.4705 144.661 43.5936 144.225 44.6881C143.788 45.7494 143.544 46.6989 143.494 47.5367C143.443 48.3745 143.593 48.9166 143.941 49.163ZM157.141 14.3153C157.18 14.4132 157.239 14.8437 157.318 15.6071C157.395 16.3371 157.468 17.2844 157.538 18.449C157.64 19.6117 157.736 20.9416 157.826 22.439C157.913 23.903 158.003 25.417 158.096 26.9809C158.223 28.5428 158.332 30.0891 158.423 31.6197C158.515 33.1503 158.599 34.5644 158.676 35.8621C158.752 37.1266 158.816 38.208 158.87 39.1064C158.921 39.9715 158.956 40.5538 158.974 40.8533C159.243 39.201 159.678 37.8226 160.28 36.7182C160.915 35.6117 161.514 35.0084 162.075 34.9081C162.733 34.7353 163.241 34.8553 163.6 35.268C163.989 35.6454 164.306 36.1942 164.549 36.9144C164.824 37.5992 165.088 38.3849 165.341 39.2714C165.626 40.1226 165.975 40.9366 166.388 41.7134C166.802 42.4901 167.344 43.1758 168.014 43.7703C168.682 44.3315 169.569 44.6459 170.674 44.7135C169.853 45.4972 169.091 45.8765 168.388 45.8517C167.719 45.8248 167.102 45.5611 166.538 45.0604C165.974 44.5598 165.467 43.9054 165.018 43.0974C164.569 42.2894 164.188 41.494 163.874 40.7113C163.56 39.9286 163.302 39.2427 163.1 38.6537C162.898 38.0647 162.761 37.7223 162.688 37.6264C162.473 37.3721 162.256 37.3684 162.037 37.6152C161.818 37.862 161.59 38.2429 161.353 38.7579C161.15 39.2709 160.952 39.8671 160.759 40.5465C160.597 41.1906 160.451 41.8171 160.32 42.4259C160.187 43.0015 160.083 43.4919 160.007 43.8972C159.931 44.3024 159.892 44.4884 159.89 44.4551C159.816 44.8936 159.767 45.4643 159.742 46.167C159.717 46.8697 159.709 47.5714 159.717 48.2722C159.757 48.9377 159.793 49.5532 159.827 50.1189C159.892 50.6493 159.962 50.9791 160.036 51.1082C159.803 51.1221 159.466 51.0588 159.023 50.9182C158.583 50.8109 158.246 50.7642 158.013 50.7781C157.954 49.7798 157.876 48.4822 157.781 46.885C157.684 45.2546 157.577 43.4577 157.459 41.4946C157.34 39.4981 157.197 37.3696 157.028 35.1089C156.894 32.8462 156.724 30.569 156.521 28.277C156.349 25.9498 156.162 23.6568 155.96 21.3982C155.757 19.1062 155.528 16.9493 155.274 14.9276C155.27 14.861 155.463 14.7326 155.852 14.5425C156.239 14.319 156.669 14.2433 157.141 14.3153Z" fill="#3F493A"/>
<path d="M52.3482 70.7638C52.3482 70.7638 73.1951 45.905 69.3857 29.3433C65.5764 12.7817 49.9162 13.8598 42.5622 16.4691C38.371 18.1979 30.4025 28.4437 41.22 41.5578C46.0424 24.6169 12.8794 22.2868 10.2017 35.3845C6.85463 51.7567 15.4876 60.9667 27.1406 66.1346C40.4271 72.027 51.1088 71.6186 52.3482 70.7638Z" stroke="black" stroke-linecap="round" stroke-linejoin="round"/>
</svg>
