<svg width="347" height="536" fill="none" xmlns="http://www.w3.org/2000/svg"><path fill-rule="evenodd" clip-rule="evenodd" d="M121.223.246c33.478-2.203 66.32 10.517 90.904 33.393 25.519 23.747 39.974 56.309 42.865 91.083 3.183 38.273-.042 79.701-26.34 107.641-26.819 28.495-68.653 39.44-107.429 34.485-34.985-4.47-60.219-31.969-83.13-58.834C17.512 183.879-.648 156.462.019 124.722c.655-31.192 19.76-57.524 41.505-79.856 22.092-22.69 48.13-42.543 79.7-44.62Z" fill="#D66E48" fill-opacity=".8"/><path clip-rule="evenodd" d="M144.223 4.246c33.478-2.203 66.32 10.517 90.904 33.393 25.519 23.747 39.974 56.309 42.865 91.083 3.183 38.273-.042 79.701-26.34 107.641-26.819 28.495-68.653 39.44-107.429 34.485-34.985-4.47-60.219-31.969-83.13-58.834-20.582-24.135-38.742-51.552-38.075-83.292.655-31.192 19.76-57.524 41.504-79.856 22.093-22.69 48.132-42.543 79.701-44.62Z" stroke="#3F493A" stroke-width="1.5"/><path fill-rule="evenodd" clip-rule="evenodd" d="M224.576 204.001c20.405-.093 39.026 9.323 52.879 24.36 15.461 16.783 28.437 37.567 24.983 60.16-3.715 24.304-20.78 44.467-42.666 55.515-22.372 11.293-49.52 14.321-71.377 2.054-20.668-11.599-28.405-36.325-31.638-59.869-2.837-20.659 2.288-41.319 15.537-57.382 12.936-15.683 31.997-24.746 52.282-24.838Z" fill="#D18906" fill-opacity=".8"/><path clip-rule="evenodd" d="M224.576 189.001c20.405-.093 39.026 9.323 52.879 24.36 15.461 16.783 28.437 37.567 24.983 60.16-3.715 24.304-20.78 44.467-42.666 55.515-22.372 11.293-49.52 14.321-71.377 2.054-20.668-11.599-28.405-36.325-31.638-59.869-2.837-20.659 2.288-41.319 15.537-57.382 12.936-15.683 31.997-24.746 52.282-24.838Z" stroke="#3F493A" stroke-width="1.5"/><path clip-rule="evenodd" d="M219.576 195.001c20.405-.093 39.026 9.323 52.879 24.36 15.461 16.783 28.437 37.567 24.983 60.16-3.715 24.304-20.78 44.467-42.666 55.515-22.372 11.293-49.52 14.321-71.377 2.054-20.668-11.599-28.405-36.325-31.638-59.869-2.837-20.659 2.288-41.319 15.537-57.382 12.936-15.683 31.997-24.746 52.282-24.838Z" stroke="#3F493A" stroke-width="1.5"/><circle cx="147.28" cy="386.059" r="6.5" transform="rotate(-161.848 147.28 386.059)" fill="#B7B680" fill-opacity=".8"/><circle cx="182.189" cy="346.99" r="6.5" transform="rotate(-161.848 182.189 346.99)" fill="#B7B680" fill-opacity=".8"/><circle cx="270.358" cy="399.049" r="6.5" transform="rotate(-161.848 270.358 399.049)" fill="#B7B680" fill-opacity=".8"/><circle cx="272.647" cy="350.338" r="6.5" transform="rotate(-161.848 272.647 350.338)" fill="#B7B680" fill-opacity=".8"/><circle cx="272.647" cy="350.338" r="6.5" transform="rotate(-161.848 272.647 350.338)" fill="#B7B680" fill-opacity=".8"/><circle cx="279.783" cy="450.548" r="6.5" transform="rotate(-161.848 279.783 450.548)" fill="#B7B680" fill-opacity=".8"/><circle cx="231.275" cy="489.368" r="6.5" transform="rotate(-161.848 231.275 489.368)" fill="#B7B680" fill-opacity=".8"/><circle cx="175.96" cy="494.385" r="6.5" transform="rotate(-161.848 175.96 494.385)" fill="#B7B680" fill-opacity=".8"/><circle cx="165.756" cy="477.359" r="6.5" transform="rotate(-161.848 165.756 477.359)" fill="#B7B680" fill-opacity=".8"/><circle cx="143.652" cy="483.793" r="6.5" transform="rotate(-161.848 143.652 483.793)" fill="#B7B680" fill-opacity=".8"/><circle cx="223.968" cy="418.568" r="6.5" transform="rotate(-161.848 223.968 418.568)" fill="#B7B680" fill-opacity=".8"/><circle cx="243.549" cy="413.412" r="9.5" transform="rotate(-161.848 243.549 413.412)" fill="#B7B680" fill-opacity=".8"/><circle cx="217.549" cy="335.431" r="9.5" transform="rotate(-161.848 217.549 335.431)" fill="#B7B680" fill-opacity=".8"/><circle cx="206.373" cy="377.545" r="5" transform="rotate(-161.848 206.373 377.545)" fill="#B7B680" fill-opacity=".8"/><circle cx="203.795" cy="367.755" r="3.5" transform="rotate(-161.848 203.795 367.755)" fill="#B7B680" fill-opacity=".8"/><circle cx="175.849" cy="408.054" r="3.5" transform="rotate(-161.848 175.849 408.054)" fill="#B7B680" fill-opacity=".8"/><circle cx="143.339" cy="420.548" r="3.5" transform="rotate(-161.848 143.339 420.548)" fill="#B7B680" fill-opacity=".8"/><circle cx="99.785" cy="437.84" r="3.5" transform="rotate(-161.848 99.785 437.84)" fill="#B7B680" fill-opacity=".8"/><circle cx="126.516" cy="471.861" r="3.5" transform="rotate(-161.848 126.516 471.861)" fill="#B7B680" fill-opacity=".8"/><circle cx="214.217" cy="429.052" r="3.5" transform="rotate(-161.848 214.217 429.052)" fill="#B7B680" fill-opacity=".8"/><circle cx="218.408" cy="445.159" r="3.5" transform="rotate(-161.848 218.408 445.159)" fill="#B7B680" fill-opacity=".8"/><circle cx="302.589" cy="458.025" r="3.5" transform="rotate(-161.848 302.589 458.025)" fill="#B7B680" fill-opacity=".8"/><circle cx="265.289" cy="461.056" r="2" transform="rotate(-161.848 265.289 461.056)" fill="#B7B680" fill-opacity=".8"/><circle cx="259.525" cy="446.537" r="2" transform="rotate(-161.848 259.525 446.537)" fill="#B7B680" fill-opacity=".8"/><circle cx="206.109" cy="452.177" r="2" transform="rotate(-161.848 206.109 452.177)" fill="#B7B680" fill-opacity=".8"/><circle cx="143.581" cy="469.563" r="2" transform="rotate(-161.848 143.581 469.563)" fill="#B7B680" fill-opacity=".8"/><circle cx="154.142" cy="430.93" r="2" transform="rotate(-161.848 154.142 430.93)" fill="#B7B680" fill-opacity=".8"/><circle cx="112.753" cy="438.408" r="2" transform="rotate(-161.848 112.753 438.408)" fill="#B7B680" fill-opacity=".8"/><circle cx="168.286" cy="349.273" r="2" transform="rotate(-161.848 168.286 349.273)" fill="#B7B680" fill-opacity=".8"/><circle cx="171.837" cy="364.118" r="2" transform="rotate(-161.848 171.837 364.118)" fill="#B7B680" fill-opacity=".8"/><circle cx="255.442" cy="388.371" r="2" transform="rotate(-161.848 255.442 388.371)" fill="#B7B680" fill-opacity=".8"/><circle cx="222.793" cy="436.599" r="2" transform="rotate(-161.848 222.793 436.599)" fill="#B7B680" fill-opacity=".8"/><circle cx="282.138" cy="204.576" r="2.953" transform="rotate(-120 282.138 204.576)" fill="#D18906" fill-opacity=".8"/><circle cx="275.045" cy="174.574" r="2.953" transform="rotate(-120 275.045 174.574)" fill="#D18906" fill-opacity=".8"/><circle cx="303.229" cy="170.237" r="2.953" transform="rotate(-120 303.229 170.237)" fill="#D18906" fill-opacity=".8"/><circle cx="298.708" cy="183.076" r="2.953" transform="rotate(-120 298.708 183.076)" fill="#D18906" fill-opacity=".8"/><circle cx="250.158" cy="178.714" r="2.953" transform="rotate(-120 250.158 178.714)" fill="#D18906" fill-opacity=".8"/><circle cx="280.99" cy="152.389" r="2.953" transform="rotate(-120 280.99 152.389)" fill="#D18906" fill-opacity=".8"/><circle cx="278.442" cy="125.649" r="2.215" transform="rotate(-120 278.442 125.649)" fill="#D18906" fill-opacity=".8"/><circle cx="296.159" cy="102.025" r="2.215" transform="rotate(-120 296.159 102.025)" fill="#D18906" fill-opacity=".8"/><circle cx="284.348" cy="181.753" r="2.215" transform="rotate(-120 284.348 181.753)" fill="#D18906" fill-opacity=".8"/><circle cx="262.201" cy="137.46" r="2.215" transform="rotate(-120 262.201 137.46)" fill="#D18906" fill-opacity=".8"/><circle cx="269.753" cy="158.024" r="2.215" transform="rotate(-120 269.753 158.024)" fill="#D18906" fill-opacity=".8"/><circle cx="287.325" cy="197.319" r="2.215" transform="rotate(-120 287.325 197.319)" fill="#D18906" fill-opacity=".8"/><circle cx="304.396" cy="206.217" r="2.215" transform="rotate(-120 304.396 206.217)" fill="#D18906" fill-opacity=".8"/><circle cx="318.949" cy="184.176" r="2.215" transform="rotate(-120 318.949 184.176)" fill="#D18906" fill-opacity=".8"/><circle cx="308.126" cy="180.196" r="2.215" transform="rotate(-120 308.126 180.196)" fill="#D18906" fill-opacity=".8"/><circle cx="234.438" cy="164.774" r="2.215" transform="rotate(-120 234.438 164.774)" fill="#D18906" fill-opacity=".8"/><circle cx="231.195" cy="176.875" r="2.215" transform="rotate(-120 231.195 176.875)" fill="#D18906" fill-opacity=".8"/><circle cx="260.136" cy="157.609" r="4.429" transform="rotate(-120 260.136 157.609)" fill="#D18906" fill-opacity=".8"/><circle cx="325.757" cy="170.869" r="4.429" transform="rotate(-120 325.757 170.869)" fill="#D18906" fill-opacity=".8"/><circle cx="250.408" cy="193.913" r="4.429" transform="rotate(-120 250.408 193.913)" fill="#D18906" fill-opacity=".8"/><circle cx="302.872" cy="131.231" r="4.429" transform="rotate(-120 302.872 131.231)" fill="#D18906" fill-opacity=".8"/><circle cx="264.184" cy="203.008" r="2.953" transform="rotate(-120 264.184 203.008)" fill="#D18906" fill-opacity=".8"/><circle cx="264.184" cy="203.008" r="2.953" transform="rotate(-120 264.184 203.008)" fill="#D18906" fill-opacity=".8"/></svg>