<svg width="96" height="96" fill="none" xmlns="http://www.w3.org/2000/svg"><path d="m92.836 91.433-84.105.315c-5.76-.835-6.67-.832-6.23-6.829.951-13.005 1.613-20.278 5.067-32.568 3.129-11.134 10.427-11.46 16.494-9.198 6.068 2.261 9.593 17.666 12.51 31.93 2.223 10.88 4.714 6.645 5.923 5.118 1.959-4.29 3.468-6.866 8.133-19.446C64.41 23.587 75.225 20.691 83.765 41.501c8.52 20.761 7.513 33.378 9.07 49.932Z" fill="#D18906" fill-opacity=".7"/><path fill-rule="evenodd" clip-rule="evenodd" d="M24.941 25.84c-2.66.023-5.09-1.58-6.901-4.146-2.021-2.864-3.72-6.413-3.275-10.277.477-4.157 2.696-7.61 5.547-9.508 2.913-1.939 6.452-2.466 9.305-.377 2.699 1.976 3.714 6.201 4.143 10.226.376 3.53-.286 7.065-2.01 9.816-1.681 2.686-4.164 4.243-6.809 4.266Z" fill="#B7B680" fill-opacity=".8"/><path clip-rule="evenodd" d="M22.943 25.916c-2.622.023-5.018-1.585-6.803-4.16-1.992-2.872-3.665-6.431-3.228-10.307.47-4.169 2.658-7.633 5.467-9.535 2.872-1.945 6.36-2.474 9.173-.378 2.66 1.982 3.66 6.22 4.083 10.256.37 3.542-.282 7.086-1.98 9.846-1.658 2.693-4.105 4.254-6.712 4.277Z" stroke="#000"/><path d="M50.928 59.413c13.1-42.154 34.978-62.068 44.875 35.178H6.62c-5.93-.955-5.894-2.934-5.407-9.427 1.055-14.078 1.779-21.95 5.407-35.232 3.287-12.034 10.806-12.322 17.043-9.819 6.237 2.503 9.78 19.22 12.703 34.697 2.229 11.804 4.819 7.239 6.072 5.595 2.043-4.63 4.173-7.101 8.49-20.992Z" stroke="#000"/></svg>