<svg width="226" height="189" fill="none" xmlns="http://www.w3.org/2000/svg"><path d="m203.684 159.39-185.617.542c-12.714-1.447-14.72-1.441-13.752-11.827 2.1-22.522 3.561-35.117 11.182-56.4 6.905-19.283 23.01-19.846 36.402-15.929 13.39 3.917 21.172 30.595 27.61 55.298 4.909 18.84 10.406 11.507 13.073 8.862 4.323-7.43 7.652-11.889 17.947-33.675 30.418-64.367 54.283-69.381 73.133-33.342 18.805 35.954 16.581 57.803 20.022 86.471Z" fill="#D18906" fill-opacity=".7"/><path d="M103.015 140.822c.961.363 1.74.749 2.335 1.157.635.417 1.108.841 1.421 1.272.356.4.611.799.767 1.198.195.406.373.789.533 1.148-.057.151-.251.09-.581-.182l-.873-.792c-.799-.736-1.799-1.29-3-1.662-1.2-.372-2.345-.529-3.433-.471-1.045.026-1.916.292-2.614.797-.698.506-.941 1.248-.73 2.228.21.98.67 1.889 1.377 2.728a22.268 22.268 0 0 0 2.495 2.411 57.277 57.277 0 0 0 2.777 2.043c.93.641 1.684 1.246 2.262 1.813a54.006 54.006 0 0 1 2.117-.657c.584-.204 1.104-.38 1.562-.529a9.6 9.6 0 0 1 1.372-.446 59.075 59.075 0 0 1 1.673-.445.437.437 0 0 1 .183-.023c.078.017.071.076-.02.179-.048.071-.223.198-.524.379-.257.15-.682.367-1.274.65-.297.142-.844.373-1.641.695-.798.322-1.658.672-2.582 1.049.421.535.742 1.07.963 1.604.186.486.289.996.309 1.529.064.501-.07.982-.402 1.442-.925 1.109-1.917 1.919-2.976 2.43-1.06.512-2.016.821-2.869.928-.571.085-1.18-.022-1.828-.319-.648-.298-1.14-.726-1.48-1.285-.359-.726-.403-1.406-.131-2.041.306-.587.747-1.126 1.323-1.616.58-.53 1.234-1.004 1.962-1.422.728-.418 1.371-.792 1.929-1.123-.308-.471-.94-1.091-1.896-1.86a191.24 191.24 0 0 1-2.958-2.568 28.414 28.414 0 0 1-2.624-2.866c-.773-.974-1.154-1.867-1.143-2.679-.059-.907.152-1.717.632-2.431a4.996 4.996 0 0 1 1.827-1.816 6.236 6.236 0 0 1 2.68-.845c1.014-.114 2.041.018 3.08.398Zm-2.818 20.342c.409.288.898.39 1.469.306a4.529 4.529 0 0 0 1.627-.577 5.533 5.533 0 0 0 1.426-.923c.445-.395.746-.76.904-1.093.153-.294.073-.656-.239-1.087a5.231 5.231 0 0 0-.892-1.162c-.467.228-1.003.544-1.609.946-.601.363-1.147.758-1.635 1.185-.45.435-.799.871-1.048 1.307-.25.436-.25.802-.003 1.098Zm-27.744-9.257c1.364.76 2.184 1.762 2.462 3.006.274 1.204.155 2.496-.357 3.874-.475 1.34-1.228 2.71-2.257 4.112a24.544 24.544 0 0 1-3.415 3.777c-.15.155-.358.347-.623.578a10.86 10.86 0 0 0-.798.632l-.802.573c-.23.152-.401.286-.514.402a40.597 40.597 0 0 1-5.604 3.229 64.418 64.418 0 0 1-6.136 2.377c-.987.168-1.864.18-2.631.036-.767-.144-1.42-.363-1.957-.659-.497-.295-.877-.626-1.139-.993-.262-.366-.382-.689-.36-.967.972.23 1.7.372 2.182.427.52.017.918.009 1.195-.022.275-.071.47-.144.585-.22.113-.116.266-.211.461-.285a57.408 57.408 0 0 0-.093-2.453l-.123-1.976a26.034 26.034 0 0 0-.049-1.735c.005-.557.009-1.135.012-1.733a125.822 125.822 0 0 0-.46-4.497 111.38 111.38 0 0 1-.266-3.295c-1.052.405-1.83.739-2.332 1.002l-1.045.505c-.233.112-.39.167-.47.165-.039-.002-.141-.045-.306-.13a.633.633 0 0 1-.326-.428 4.494 4.494 0 0 1-.105-.721 8.68 8.68 0 0 1 0-.956 5.22 5.22 0 0 1 .75-.455c.23-.152.48-.303.75-.454.31-.15.678-.317 1.105-.503.425-.226.965-.527 1.62-.905a451.998 451.998 0 0 0-.352-3.717 39.684 39.684 0 0 0-.315-3.117 48.84 48.84 0 0 0-.441-3.242c-.15-1.12-.33-2.401-.54-3.842-.01-.159-.287-.128-.831.094-.548.182-1.167.481-1.86.897a14.93 14.93 0 0 0-2.069 1.369c-.645.538-1.11 1.081-1.394 1.63-.298.349-.497.681-.597.997-.14.314-.242.59-.307.827-.108.196-.18.313-.218.352-.08-.003-.208-.147-.386-.431a6.093 6.093 0 0 1 .72-2.846 8.188 8.188 0 0 1 1.77-2.335 10.307 10.307 0 0 1 2.347-1.719c.887-.49 1.74-.881 2.56-1.174.013-.438-.009-.777-.064-1.018a1.186 1.186 0 0 1 .02-.657c.197-.033.484-.224.861-.57.375-.387.643-.578.803-.573.095.243.17.484.224.725.053.201.104.382.154.543.053.2.104.381.154.542 1.002-.566 2.157-.908 3.467-1.026a13.349 13.349 0 0 1 3.774.06c1.247.158 2.344.472 3.29.94.985.43 1.655.929 2.01 1.498.867 1.103 1.222 2.33 1.067 3.679-.157 1.31-.576 2.592-1.256 3.845a15.142 15.142 0 0 1-2.418 3.45c-.932 1.047-1.74 1.858-2.422 2.434a38.02 38.02 0 0 1 3.745-.42 22.557 22.557 0 0 1 3.654.056c1.202.078 2.309.232 3.32.463 1.013.232 1.871.557 2.576.978Zm-20.467-13.376c-.003 2.51.163 4.846.498 7.008.334 2.162.613 4.402.838 6.72a17.148 17.148 0 0 0 3.07-1.636c1.035-.684 2-1.511 2.898-2.478a15.323 15.323 0 0 0 2.31-3.274c.642-1.215 1.075-2.576 1.3-4.083.073-.755-.227-1.402-.899-1.941-.634-.578-1.476-.963-2.526-1.155-1.052-.233-2.252-.291-3.602-.174-1.31.118-2.605.456-3.887 1.013Zm3.06 32.728c2.082-.531 4.221-1.42 6.418-2.666 2.197-1.245 4.166-2.617 5.908-4.116 1.78-1.538 3.177-3.107 4.195-4.709 1.015-1.641 1.38-3.124 1.099-4.448-.215-.883-1.092-1.508-2.631-1.876-1.502-.406-3.269-.581-5.3-.525a33.179 33.179 0 0 0-6.185.641c-2.049.413-3.73.958-5.045 1.634l.183 2.934a200.036 200.036 0 0 0 .823 9.349c.18 1.6.358 2.86.536 3.782Zm38.074-15.08c.12.004.205.086.255.247.05.161.062.361.037.599a1.53 1.53 0 0 1-.083.595 1.72 1.72 0 0 1-.093.415c-.443-.053-1.142-.076-2.1-.066a39.05 39.05 0 0 0-2.99.025 26.786 26.786 0 0 0-2.804.151c-.835.053-1.327.157-1.477.312-.247-.765-.264-1.363-.052-1.795.252-.43.7-.615 1.342-.555l1.859.058a23.397 23.397 0 0 1 1.675-.006l1.86.058c.677-.018 1.534-.031 2.57-.038Zm126.927-11.868c-.037.239-.129.736-.278 1.493a702.43 702.43 0 0 0-.381 2.69 62.045 62.045 0 0 0-.373 3.171 47.678 47.678 0 0 0-.194 3.174c.015 1 .088 1.861.218 2.584.17.683.416 1.108.738 1.275.926.461 1.864.341 2.813-.358.949-.739 2.052-1.854 3.31-3.346.12.003.122.163.007.48-.076.319-.23.675-.464 1.07-.195.355-.41.73-.644 1.125-.194.356-.351.592-.469.709-.314.393-.767.843-1.36 1.35a9.113 9.113 0 0 1-1.902 1.158c-.675.265-1.333.37-1.974.316-.6-.053-1.105-.424-1.515-1.112-.207-.485-.336-1.067-.386-1.748a19.468 19.468 0 0 1-.031-2.16c.029-.719.08-1.377.151-1.976.071-.598.125-1.036.161-1.316a30.83 30.83 0 0 1-2.815 4.377c-1.059 1.376-2.103 2.453-3.131 3.23-1.028.777-1.982 1.176-2.861 1.197-.878.06-1.566-.455-2.061-1.545-.295-1.046-.312-2.206-.051-3.48.261-1.313.663-2.484 1.208-3.512a35.843 35.843 0 0 1 2.582-3.901c.902-1.18 1.867-2.178 2.894-2.996 1.028-.817 2.099-1.393 3.213-1.728a7.233 7.233 0 0 1 3.595-.221Zm-11.055 14.991c.401.088 1.037-.197 1.906-.858.87-.661 1.776-1.581 2.719-2.759.941-1.219 1.78-2.62 2.517-4.203a16.237 16.237 0 0 0 1.484-5.126l-.72-.015c-.28-.007-.618.106-1.014.337a15.69 15.69 0 0 0-3.848 3.454c-1.06 1.297-1.881 2.578-2.462 3.845-.582 1.226-.925 2.338-1.031 3.336-.105.997.044 1.66.449 1.989Zm-38.43-14.066c.761.049 1.604.18 2.528.392.923.172 1.828.424 2.715.755.886.291 1.694.641 2.422 1.051.768.369 1.397.797 1.888 1.283.489.446.784 1.13.884 2.051.099.88.061 1.859-.116 2.937a18.927 18.927 0 0 1-.887 3.346 18.802 18.802 0 0 1-1.313 3.042c-.5.913-1.043 1.666-1.63 2.258-.587.592-1.14.884-1.66.878-.88-.012-1.625-.221-2.233-.629a5.582 5.582 0 0 1-1.474-1.578 8.953 8.953 0 0 1-.881-1.87 12.485 12.485 0 0 1-.337-1.744c-.167-2.121-.228-4.001-.183-5.639.044-1.639.154-2.997.331-4.074a6.407 6.407 0 0 0-.372-.544 4.025 4.025 0 0 0-.369-.425 2.187 2.187 0 0 0-.429-.425c.158-.078.316-.196.472-.354.315-.236.53-.473.644-.711Zm2.471 14.304c.124.162.288.344.492.546.203.163.446.306.729.429.322.085.642.089.96.013.318-.076.653-.292 1.005-.647.939-.987 1.636-1.998 2.094-3.031.456-1.074.734-2.07.834-2.988.139-.958.101-1.798-.115-2.52-.175-.722-.467-1.245-.874-1.571a10.724 10.724 0 0 0-.85-.49c-.203-.163-.487-.306-.849-.431-.323-.124-.745-.25-1.268-.376-.523-.167-1.208-.376-2.053-.626a21.527 21.527 0 0 0-.756 3.828 28.627 28.627 0 0 0-.163 3.536 25.81 25.81 0 0 0 .3 2.762c.177.762.348 1.284.514 1.566Zm30.25-3.607c.077.086.052.225-.074.416a2.399 2.399 0 0 1-.439.628 7.9 7.9 0 0 1-.561.679c-.166.188-.29.319-.373.393a108.683 108.683 0 0 1-2.661 2.624 34.255 34.255 0 0 0-1.917 1.839c-.002.04-.028.259-.081.655l-.023.72a69.94 69.94 0 0 0-.248 4.069 24.438 24.438 0 0 1-.372 4.18c-.289 1.581-.589 2.841-.899 3.779-.27.982-.555 1.762-.853 2.341-.299.618-.615 1.115-.947 1.491-.293.419-.627.874-1.002 1.367a5.469 5.469 0 0 1-1.113 1.058c-.409.29-.96.629-1.652 1.018-.935.491-1.905.838-2.911 1.043-1.006.204-1.925.175-2.756-.088-.833-.223-1.517-.715-2.053-1.477-.575-.765-.88-1.87-.914-3.315-.03-1.605.299-3.164.987-4.675a21.508 21.508 0 0 1 2.407-4.086c.918-1.213 1.81-2.228 2.675-3.044.866-.817 1.463-1.373 1.792-1.669.536-.52 1.01-.966 1.422-1.335.451-.367.902-.714 1.352-1.04.449-.287.919-.612 1.41-.976a65.054 65.054 0 0 0 1.84-1.304c.19-.948.321-1.939.394-2.976.074-1.076.109-2.176.104-3.298-.765 1.425-1.579 2.526-2.443 3.302-.824.779-1.582 1.363-2.274 1.752-.651.352-1.198.571-1.64.658-.402.05-.563.078-.483.084-.761.063-1.381.056-1.858-.02-.436-.113-.792-.26-1.066-.441a3.3 3.3 0 0 1-.577-.705 5.746 5.746 0 0 1-.277-.742 8.536 8.536 0 0 1 .1-3.179 15.841 15.841 0 0 1 1.118-3.101c.47-.967.978-1.85 1.523-2.651.545-.8 1.045-1.444 1.5-1.93.082-.074.268-.261.557-.56.331-.335.742-.685 1.233-1.049.492-.403 1.085-.8 1.777-1.188a14.852 14.852 0 0 1 2.49-1.015c.924-.13 1.864-.14 2.82-.027.957.072 1.728.35 2.313.835-.323.096-.827.218-1.511.367-.643.112-1.066.2-1.268.265l-.004.12c-.004.12.034.183.114.189-.673-.211-1.739-.011-3.197.601-1.459.611-3.058 1.873-4.798 3.786-.791 1.022-1.401 1.958-1.827 2.807-.426.81-.748 1.527-.968 2.151-.178.588-.274 1.102-.288 1.542a6.71 6.71 0 0 0 .027 1.024c.035.163.17.313.406.451.235.138.534.181.896.128 1.044-.162 2.018-.61 2.921-1.343a15.51 15.51 0 0 0 2.541-2.634 22.536 22.536 0 0 0 2.012-2.914c.55-.96.954-1.731 1.212-2.313.428-.889.654-1.714.678-2.473.065-.797.057-1.198-.022-1.204l.06.004.179.014c.04.003.039.023-.002.06l-.361.033c.083-.074.164-.108.243-.102l.243-.102c-.038-.043-.037-.083.004-.12.083-.074.164-.108.243-.102.003-.08.105-.152.307-.217l.363-.093.183-.107c.162-.068.264-.12.305-.157.041-.037.082-.054.121-.051.08.006.199.055.356.147.158.052.435.153.83.303-.389.933-.746 2.088-1.069 3.466a126.642 126.642 0 0 0-.789 4.089c-.243 1.384-.465 2.71-.665 3.977-.159 1.23-.309 2.201-.452 2.911.33-.295.8-.641 1.412-1.035a70.268 70.268 0 0 0 1.897-1.18c.733-.425 1.506-.868 2.321-1.328Zm-7.866 9.807c.148-.911.146-1.472-.007-1.684-.076-.126-.175-.173-.296-.142a84.752 84.752 0 0 0-2.702 2.02c-.697.549-1.168.914-1.414 1.096-1.971 1.654-3.457 3.125-4.457 4.412-.962 1.331-1.62 2.563-1.976 3.699-.479 1.246-.774 2.346-.884 3.299-.071.997.158 1.976.687 2.938.973.834 2.046 1.056 3.218.663 1.21-.35 2.329-.967 3.357-1.851 1.198-1.232 2.194-3.02 2.988-5.365.792-2.305 1.287-5.333 1.486-9.085Zm-51.244-20.471c.12-.033.461-.112 1.021-.238.561-.166 1.02-.179 1.379-.037 1.158.031 2.034.384 2.627 1.06.632.679.681 1.922.145 3.731-.778 1.994-1.812 3.632-3.102 4.914-1.25 1.285-2.74 2.495-4.468 3.631.39 1.064.983 1.681 1.781 1.849.797.169 1.637.1 2.518-.207a12.57 12.57 0 0 0 2.59-1.404 27.04 27.04 0 0 0 2.052-1.556 33.841 33.841 0 0 0 1.993-1.68 18.494 18.494 0 0 0 1.634-1.762c.121-.073.18-.049.179.071.04.082.038.222-.004.42a38 38 0 0 1-.187.829c-.122.273-.245.525-.367.758a5.067 5.067 0 0 1-.545.687c-.202.228-.484.511-.847.849-.363.339-.806.792-1.331 1.36a65.537 65.537 0 0 0-1.752 1.575c-.564.486-1.167.91-1.81 1.271a5.477 5.477 0 0 1-2.044.716c-.72.117-1.558.066-2.515-.152-.796-.329-1.432-.668-1.908-1.017-.477-.349-.853-.692-1.129-1.029a6.464 6.464 0 0 1-.53-.992 3.887 3.887 0 0 1-.233-.735c-.193-.812-.262-1.897-.21-3.254.053-1.358.468-3.093 1.247-5.207.529-1.089 1.097-1.995 1.703-2.718.606-.764 1.311-1.342 2.113-1.733Zm-2.733 10.46a17.094 17.094 0 0 0 1.807-1.031 12.746 12.746 0 0 0 1.992-1.62 10.127 10.127 0 0 0 1.638-2.122 5.084 5.084 0 0 0 .802-2.473c.125-.593.109-1.014-.048-1.263-.079-.125-.158-.19-.238-.195-.676-.361-1.356-.302-2.039.177-.684.478-1.31 1.181-1.877 2.107-.568.926-1.057 1.977-1.468 3.152-.37 1.139-.56 2.228-.569 3.268Zm-3.997-24.041a68.588 68.588 0 0 1-.16 2.274 30.175 30.175 0 0 1-.279 2.277 224.76 224.76 0 0 1-.208 1.857c-.06.519-.104.838-.13.958-.162.681-.382 1.562-.659 2.644a40.841 40.841 0 0 1-1.049 3.429 37.562 37.562 0 0 1-1.395 3.556c-.547 1.167-1.133 2.176-1.757 3.026.068.596.245 1.608.529 3.036.32 1.387.674 2.893 1.061 4.518.387 1.625.75 3.211 1.088 4.757.382 1.585.644 2.815.784 3.688-.177.203-.361.167-.553-.107a25.942 25.942 0 0 1-.884-1.415 66.169 66.169 0 0 1-.929-2.848l-.661-2.615a105.04 105.04 0 0 0-.749-2.852 38.157 38.157 0 0 0-.991-3.385c-.65.97-1.444 2.083-2.382 3.338a24.304 24.304 0 0 1-2.929 3.291c-1.015.938-2.059 1.618-3.134 2.04-1.038.381-1.999.222-2.881-.476a3.31 3.31 0 0 1-.853-2.192 6.11 6.11 0 0 1 .419-2.638c.294-.923.712-1.828 1.251-2.717a38.23 38.23 0 0 1 1.759-2.488 26.68 26.68 0 0 1 1.693-2.008c.536-.57.93-.977 1.183-1.221.518-.37.946-.658 1.283-.865.373-.247.692-.433.959-.558.301-.166.61-.273.925-.319.311-.087.709-.115 1.193-.086a61.867 61.867 0 0 1-.557-3.274l-.438-3.815c-.111-1.313-.21-2.525-.298-3.639-.048-1.114-.046-1.971.005-2.57-.02-.876.055-1.793.225-2.753.21-.961.485-1.883.825-2.767.374-.924.803-1.73 1.285-2.418.478-.728 1.021-1.237 1.628-1.529a2.96 2.96 0 0 1 2.013-.283c.738.143 1.495.625 2.27 1.444.638.664 1.016 1.512 1.135 2.545l.363 3.16Zm-6.089 16.087a11.669 11.669 0 0 0 1.512-2.543c.375-.924.791-2.009 1.249-3.254.397-1.084.699-2.465.907-4.143.248-1.678.361-3.314.338-4.907-.027-1.633-.189-3.044-.486-4.232-.297-1.189-.77-1.816-1.419-1.882-.569-.067-1.064.163-1.484.69-.425.487-.794 1.113-1.108 1.876a12.518 12.518 0 0 0-.752 2.347c-.184.841-.3 1.58-.347 2.219a29.439 29.439 0 0 0-.113 2.153c.033.637.071 1.314.113 2.03.078.675.145 1.431.2 2.266.052.796.086 1.791.103 2.986.069.596.157 1.191.266 1.787.148.594.287 1.109.418 1.544.165.395.302.711.409.947.103.197.168.236.194.116Zm-8.061 5.732c-.952 1.136-1.633 2.187-2.043 3.152a25.42 25.42 0 0 0-.905 2.589l.068.596c.028.238.075.476.142.714.108.237.253.453.436.648.218.155.522.188.913.1.382-.168.683-.334.905-.498.262-.165.483-.329.665-.493l.651-.611c.257-.205.568-.471.931-.797a41.675 41.675 0 0 1 1.807-2.071 13.1 13.1 0 0 0 1.885-2.431c.544-.849.866-1.712.965-2.591.1-.879-.258-1.727-1.074-2.546-.28.006-.575.052-.886.139-.271.085-.608.292-1.011.619-.408.288-.9.717-1.476 1.287-.541.53-1.198 1.261-1.973 2.194Z" fill="#3F493A"/><path d="M113.353 137.812c.398-.051.639.206.721.771.082.566.004.98-.234 1.243-.438.329-.715.629-.834.901-.119.231-.397.371-.836.42a1.825 1.825 0 0 0-.658-.047c-.16-.012-.301-.361-.423-1.05.157-.429.395-.852.712-1.269.357-.414.874-.737 1.552-.969Zm.213 7.813c.207 1.934.356 4.064.446 6.39.089 2.285.239 4.695.45 7.229.165 1.292.329 2.303.491 3.035.163.731.286 1.419.368 2.065-.638.075-1.136.039-1.496-.107a8.88 8.88 0 0 1-1.02-.612 86.903 86.903 0 0 1-.313-3.201 312.56 312.56 0 0 0-.319-4.822 189.905 189.905 0 0 0-.322-5.121 119.242 119.242 0 0 0-.256-3.917.703.703 0 0 0 .358-.334c.119-.152.238-.283.357-.395.119-.111.278-.2.478-.266.199-.065.458-.047.778.056Zm54.1 8.306a215.697 215.697 0 0 1-1.403 6.823 218.37 218.37 0 0 1-1.706 7.165 134.215 134.215 0 0 1-1.692 5.966c-.541 1.73-1.014 2.843-1.42 3.34-.48.052-.999.002-1.557-.151-.517-.15-.654-.438-.409-.864.78-1.636 1.543-3.593 2.29-5.871.624-1.965 1.273-4.369 1.947-7.212.715-2.84 1.315-6.167 1.802-9.981a4.626 4.626 0 0 1-1.912-.532 12.744 12.744 0 0 1-1.664-1.177 18.008 18.008 0 0 1-1.479-1.527 43.027 43.027 0 0 1-1.3-1.576c-.589-.795-1.196-1.871-1.818-3.228a53.491 53.491 0 0 1-1.626-4.297 39.752 39.752 0 0 1-1.204-4.453c-.341-1.501-.565-2.755-.673-3.762.003-.2.124-.333.365-.399.201-.068.461-.093.78-.074.32.018.659.078 1.017.179.319.058.598.115.837.169.35 4.062 1.009 7.343 1.977 9.841 1.009 2.46 2.024 4.38 3.046 5.76 1.219 1.632 2.543 2.81 3.972 3.533.301-1.663.524-3.592.671-5.785.187-2.19.313-4.284.377-6.282.065-2.037.087-3.797.065-5.279-.022-1.482-.05-2.385-.086-2.707.284-.384.586-.566.906-.548.359.021.876.191 1.552.511a56.611 56.611 0 0 1-.045 3.659 79.175 79.175 0 0 1-.173 4.253 184.02 184.02 0 0 1-.354 4.422c-.098 1.476-.215 2.87-.351 4.183-.136 1.273-.27 2.446-.403 3.519-.093 1.035-.202 1.829-.329 2.382Z" fill="#3F493A"/><path fill-rule="evenodd" clip-rule="evenodd" d="M53.838 45.793c-5.871.04-11.236-2.736-15.231-7.18-4.46-4.96-8.207-11.106-7.228-17.798C32.432 13.616 37.33 7.635 43.62 4.35 50.05.992 57.86.08 64.158 3.697c5.955 3.422 8.197 10.739 9.143 17.708.83 6.115-.632 12.236-4.434 17-3.713 4.652-9.192 7.348-15.029 7.388Z" fill="#B7B680" fill-opacity=".8"/><path clip-rule="evenodd" d="M49.429 45.924c-5.788.04-11.076-2.745-15.014-7.202-4.396-4.975-8.09-11.14-7.125-17.85 1.038-7.22 5.865-13.22 12.066-16.514C45.694.991 53.392.075 59.599 3.704c5.87 3.432 8.08 10.77 9.013 17.76.818 6.134-.622 12.273-4.37 17.051-3.66 4.666-9.06 7.369-14.813 7.409Z" stroke="#000"/><path d="M206.277 148.53C185.831-2.072 142.996 34.42 111.19 103.935c-10.765 23.527-14.228 28.335-18.735 36.353-2.767 2.846-8.483 10.752-13.402-9.689-6.45-26.803-14.27-55.754-28.034-60.088-13.766-4.335-30.36-3.836-37.615 17.004-8.007 23.001-9.605 36.634-11.933 61.015-1.074 11.244-1.153 14.671 11.933 16.325H36.43" stroke="#000"/></svg>