<svg width="216" height="85" fill="none" xmlns="http://www.w3.org/2000/svg"><path d="M90.921 18.966c.163-.077.476-.145.94-.206.495-.097.93-.073 1.306.072.041.131.1.545.174 1.242.074.663.156 1.493.25 2.49.125.994.24 2.072.342 3.235.136 1.16.27 2.288.402 3.382.13 1.06.238 2.022.323 2.886.116.828.218 1.422.307 1.785.822-.216 1.496-.39 2.022-.522.527-.131.972-.225 1.336-.28.362-.088.692-.158.99-.209.297-.051.659-.14 1.085-.265.564-.067.996-.11 1.295-.127.333-.02.569.016.708.108.17.056.259.151.267.284.041.131.068.297.08.496-.493.13-1.067.314-1.72.554a97.93 97.93 0 0 0-1.964.668c-.654.24-1.323.496-2.008.77a27.08 27.08 0 0 1-1.867.613c.05.264.133.827.251 1.688.119.861.262 1.871.432 3.03.169 1.158.343 2.4.522 3.725.213 1.323.423 2.613.632 3.87.206 1.223.407 2.346.602 3.37.194 1.023.373 1.78.536 2.272.155.358.241.687.259.986.051.297.179.757.383 1.38a5.255 5.255 0 0 1-1.13.368c-.394.123-.744.127-1.052.012-.19-.39-.345-.747-.464-1.074a32.06 32.06 0 0 1-.265-1.086 42.31 42.31 0 0 1-.28-1.336 31.27 31.27 0 0 0-.313-1.885c-.055-.364-.139-.926-.251-1.688a47.155 47.155 0 0 0-.36-2.683 131.58 131.58 0 0 0-.438-3.13c-.132-1.094-.26-2.121-.384-3.082-.126-.994-.227-1.857-.304-2.587a43.28 43.28 0 0 1-.145-1.594 220.6 220.6 0 0 1-1.577.445 48.56 48.56 0 0 1-1.38.383 214.48 214.48 0 0 0-3.742 1.074c.041.7.103 1.447.184 2.244.079.763.188 1.758.328 2.985.08.797.188 2.026.32 3.688.166 1.66.348 3.585.545 5.777a17.23 17.23 0 0 1-1.068.565c-.392.157-.72.243-.987.26-.045-.198-.1-.846-.166-1.944l-.235-3.943c-.089-1.498-.199-3.06-.33-4.689a87.602 87.602 0 0 0-.364-4.436c-1.339.514-2.484.9-3.437 1.157-.92.255-1.487.272-1.7.05-.067.005-.06-.146.023-.451.08-.339.195-.646.346-.922.526-.132.97-.242 1.332-.33a41.73 41.73 0 0 1 1.034-.313c.326-.12.636-.238.93-.355a54.9 54.9 0 0 0 1.168-.571 305.181 305.181 0 0 0-.576-4.624 58.81 58.81 0 0 0-.526-3.775 52.784 52.784 0 0 0-.602-3.37 66.048 66.048 0 0 0-.866-3.605c.15-.276.468-.563.95-.858.515-.332 1.096-.4 1.742-.205.054 1.467.15 2.813.29 4.04.139 1.194.294 2.404.468 3.629.173 1.225.35 2.5.528 3.825a82.4 82.4 0 0 1 .465 4.43c.76-.145 1.661-.416 2.706-.812 1.045-.396 2.29-.788 3.737-1.175a148.86 148.86 0 0 0-.25-3.34 97.318 97.318 0 0 0-.455-4.281 112.363 112.363 0 0 0-.593-4.072c-.178-1.292-.352-2.25-.523-2.874-.047-.231-.089-.379-.126-.443a.543.543 0 0 0-.112-.194l-.009-.15a2.1 2.1 0 0 1 .03-.352Zm20.802 19.396c-.021.201-.08.622-.175 1.263-.062.638-.134 1.393-.216 2.266a51.87 51.87 0 0 0-.191 2.666 40.32 40.32 0 0 0-.042 2.658c.05.832.142 1.544.278 2.137.167.558.387.895.661 1.012.787.32 1.562.158 2.325-.489.761-.68 1.636-1.684 2.626-3.011.099-.006.107.127.023.399-.05.27-.166.577-.345.922-.149.31-.313.636-.493.981-.148.31-.27.517-.363.623-.247.348-.607.754-1.08 1.216-.475.43-.988.794-1.538 1.094-.551.266-1.094.399-1.629.397-.501-.003-.935-.278-1.301-.824-.19-.389-.319-.865-.386-1.43a16.104 16.104 0 0 1-.107-1.796c-.003-.6.015-1.153.051-1.656.037-.503.065-.872.085-1.107a27.084 27.084 0 0 1-2.176 3.836c-.829 1.219-1.656 2.186-2.481 2.903-.826.717-1.604 1.114-2.334 1.191-.728.11-1.318-.272-1.771-1.146-.285-.852-.342-1.816-.173-2.895.168-1.112.459-2.114.873-3.007a31.421 31.421 0 0 1 2-3.425 14.912 14.912 0 0 1 2.293-2.692c.824-.75 1.692-1.303 2.606-1.658a6.092 6.092 0 0 1 2.98-.428Zm-8.627 13.237c.337.047.854-.235 1.552-.844.699-.61 1.417-1.437 2.156-2.483.737-1.079 1.382-2.303 1.935-3.671.584-1.404.932-2.86 1.042-4.37l-.599.035c-.233.014-.51.131-.831.35a13.786 13.786 0 0 0-3.068 3.139c-.833 1.151-1.467 2.275-1.903 3.37-.438 1.06-.682 2.01-.732 2.848-.05.838.099 1.38.448 1.626Zm14.834-14.158c.056.931.094 1.864.117 2.798.055.931.092 1.83.111 2.698.051.865.083 1.681.096 2.449.045.765.069 1.448.072 2.049-.008-.133.039-.453.143-.96.134-.543.315-1.154.541-1.836.227-.681.468-1.397.724-2.147a13.92 13.92 0 0 1 .929-2.059c.33-.62.669-1.108 1.015-1.463.379-.356.739-.478 1.08-.365.752.29 1.296.741 1.633 1.356.338.614.598 1.333.78 2.157.181.79.368 1.681.56 2.671.193.99.555 2.02 1.086 3.091.23.487.534.837.914 1.048.413.209.789.353 1.128.433.372.078.659.128.86.15.233-.015.32.03.259.134-.794.682-1.497.94-2.108.777-.61-.164-1.152-.566-1.624-1.205-.441-.675-.823-1.47-1.144-2.387-.324-.949-.628-1.849-.913-2.7a45.47 45.47 0 0 0-.683-2.213c-.204-.623-.406-.928-.605-.916-.298.051-.614.354-.948.908a17.841 17.841 0 0 0-.929 2.06c-.318.82-.615 1.722-.89 2.707-.277.951-.541 1.852-.791 2.702a61.19 61.19 0 0 0-.755 3.3c-.499.03-.814.066-.945.107-.098.04-.291-.116-.579-.466a101.06 101.06 0 0 0-.344-8.294c-.19-2.627-.393-4.902-.608-6.826-.018-.3.04-.454.173-.462.167-.01.337.047.511.17l.623.364c.208.121.378.178.511.17Zm13.16-.785c.056.931.095 1.864.117 2.798.056.931.093 1.83.111 2.698.051.865.083 1.681.096 2.449.045.765.069 1.448.072 2.049-.008-.133.04-.453.143-.96a24.91 24.91 0 0 1 .542-1.836c.226-.681.467-1.397.723-2.147a13.92 13.92 0 0 1 .929-2.059c.331-.62.669-1.108 1.015-1.463.379-.356.739-.478 1.08-.364.752.289 1.297.74 1.634 1.355.337.614.597 1.333.78 2.157.18.79.367 1.681.56 2.671.192.99.554 2.021 1.085 3.091.23.488.535.837.914 1.048.414.209.79.353 1.128.433.372.078.659.128.861.15.233-.014.319.03.258.134-.794.682-1.496.941-2.107.777-.611-.164-1.153-.566-1.625-1.205-.441-.675-.822-1.47-1.144-2.387-.324-.949-.628-1.849-.912-2.7a46.584 46.584 0 0 0-.683-2.213c-.205-.622-.406-.928-.606-.916-.297.051-.613.354-.948.908-.301.552-.61 1.239-.929 2.06-.318.82-.615 1.722-.89 2.707-.277.952-.541 1.852-.791 2.702a58.844 58.844 0 0 0-.754 3.3c-.5.03-.815.066-.946.107-.098.04-.291-.116-.579-.466a101.06 101.06 0 0 0-.344-8.294c-.19-2.627-.393-4.902-.607-6.826-.018-.3.039-.453.172-.462.167-.01.337.047.511.17l.623.364c.208.121.378.178.511.17Zm21.478-.73c-.021.201-.079.622-.175 1.262-.062.639-.134 1.394-.215 2.267-.084.84-.147 1.729-.192 2.666a40.32 40.32 0 0 0-.042 2.658c.05.832.143 1.544.278 2.137.167.558.387.895.662 1.012.787.32 1.562.158 2.325-.489.76-.68 1.636-1.684 2.625-3.011.1-.006.108.127.024.399-.051.27-.166.577-.346.922-.148.31-.313.636-.492.981-.149.31-.27.517-.364.623-.246.348-.606.754-1.08 1.216a8 8 0 0 1-1.537 1.094c-.552.266-1.095.399-1.629.397-.501-.003-.935-.278-1.302-.824-.19-.389-.319-.865-.386-1.43a16.344 16.344 0 0 1-.107-1.796c-.002-.6.015-1.153.052-1.656.037-.503.065-.872.084-1.107a26.98 26.98 0 0 1-2.175 3.836c-.829 1.218-1.657 2.186-2.482 2.903-.825.717-1.603 1.114-2.333 1.191-.728.11-1.319-.272-1.772-1.146-.284-.852-.342-1.816-.172-2.895.167-1.112.458-2.114.872-3.007a31.595 31.595 0 0 1 2-3.426c.706-1.043 1.47-1.94 2.294-2.69.823-.751 1.692-1.304 2.606-1.659a6.087 6.087 0 0 1 2.979-.428Zm-8.627 13.237c.337.047.854-.235 1.553-.844.698-.61 1.417-1.437 2.156-2.483.737-1.079 1.382-2.303 1.935-3.671.584-1.404.931-2.86 1.041-4.37l-.599.035c-.233.014-.509.131-.83.35a13.79 13.79 0 0 0-3.069 3.139c-.833 1.151-1.467 2.275-1.903 3.37-.437 1.06-.681 2.01-.731 2.848-.051.837.099 1.38.447 1.626Zm13.2-34.848c.039.098.098.529.177 1.292.077.73.15 1.677.22 2.842.102 1.163.198 2.493.288 3.99l.27 4.542c.127 1.562.236 3.108.327 4.639l.253 4.242.194 3.244.104 1.747c.269-1.652.704-3.03 1.306-4.135.635-1.106 1.234-1.71 1.795-1.81.658-.173 1.166-.053 1.525.36.389.377.706.926.949 1.646.275.685.539 1.47.792 2.357a16.04 16.04 0 0 0 1.047 2.442 7.36 7.36 0 0 0 1.626 2.057c.668.561 1.555.876 2.66.944-.821.783-1.583 1.163-2.286 1.138-.669-.027-1.286-.29-1.85-.792-.564-.5-1.071-1.155-1.52-1.963a21.076 21.076 0 0 1-1.144-2.386 43.735 43.735 0 0 1-.774-2.057c-.202-.59-.339-.932-.412-1.028-.215-.254-.432-.258-.651-.01-.219.246-.447.627-.684 1.142-.203.513-.401 1.11-.594 1.788a56.456 56.456 0 0 0-.439 1.88 36.835 36.835 0 0 0-.313 1.471c-.076.405-.115.591-.117.558-.074.439-.123 1.01-.148 1.712-.025.703-.033 1.404-.025 2.105l.11 1.847c.065.53.135.86.209.99-.233.013-.57-.05-1.013-.19-.44-.108-.777-.155-1.01-.14l-.232-3.894-.322-5.39a425.025 425.025 0 0 0-.431-6.386c-.134-2.263-.304-4.54-.507-6.832a447.53 447.53 0 0 0-.561-6.879 178.018 178.018 0 0 0-.686-6.47c-.004-.067.189-.195.578-.386a1.927 1.927 0 0 1 1.289-.227Z" fill="#3F493A"/><path d="M52.348 70.764s20.847-24.859 17.038-41.42c-3.81-16.562-19.47-15.484-26.824-12.875-4.191 1.729-12.16 11.975-1.342 25.089 4.822-16.941-28.34-19.271-31.018-6.173-3.347 16.372 5.286 25.582 16.939 30.75 13.286 5.892 23.968 5.484 25.207 4.629Z" stroke="#000" stroke-linecap="round" stroke-linejoin="round"/></svg>